<svg width="320" height="71" viewBox="0 0 320 71" fill="none" xmlns="http://www.w3.org/2000/svg">
<rect width="320" height="71" fill="white"/>
<line x1="15" y1="28.5" x2="43" y2="28.5" stroke="#5F328C"/>
<line x1="15" y1="37.5" x2="43" y2="37.5" stroke="#5F328C"/>
<line x1="15" y1="46.5" x2="43" y2="46.5" stroke="#5F328C"/>
<path d="M116.312 12H117.719V27.5391L117.625 30H116.312V12ZM126.543 23.543V23.7891C126.543 24.7344 126.434 25.6016 126.215 26.3906C125.996 27.1797 125.68 27.8633 125.266 28.4414C124.852 29.0117 124.344 29.4531 123.742 29.7656C123.148 30.0781 122.465 30.2344 121.691 30.2344C120.934 30.2344 120.262 30.1172 119.676 29.8828C119.09 29.6406 118.59 29.3008 118.176 28.8633C117.762 28.418 117.43 27.8984 117.18 27.3047C116.93 26.7031 116.754 26.043 116.652 25.3242V22.1953C116.77 21.4297 116.957 20.7344 117.215 20.1094C117.473 19.4844 117.805 18.9453 118.211 18.4922C118.625 18.0391 119.117 17.6914 119.688 17.4492C120.266 17.207 120.926 17.0859 121.668 17.0859C122.441 17.0859 123.129 17.2383 123.73 17.543C124.34 17.8398 124.852 18.2734 125.266 18.8438C125.68 19.4062 125.996 20.0859 126.215 20.8828C126.434 21.6719 126.543 22.5586 126.543 23.543ZM125.125 23.7891V23.543C125.125 22.8008 125.055 22.1133 124.914 21.4805C124.773 20.8477 124.551 20.2969 124.246 19.8281C123.949 19.3516 123.566 18.9805 123.098 18.7148C122.629 18.4492 122.066 18.3164 121.41 18.3164C120.738 18.3164 120.164 18.4297 119.688 18.6562C119.219 18.875 118.828 19.168 118.516 19.5352C118.211 19.8945 117.969 20.2891 117.789 20.7188C117.609 21.1484 117.477 21.5703 117.391 21.9844V25.6289C117.523 26.2148 117.754 26.7656 118.082 27.2812C118.41 27.7969 118.852 28.2148 119.406 28.5352C119.961 28.8477 120.637 29.0039 121.434 29.0039C122.074 29.0039 122.625 28.8711 123.086 28.6055C123.555 28.3398 123.938 27.9727 124.234 27.5039C124.539 27.0352 124.762 26.4844 124.902 25.8516C125.051 25.2188 125.125 24.5312 125.125 23.7891ZM137.77 27.0703V17.3203H139.176V30H137.828L137.77 27.0703ZM138.027 24.7266L138.754 24.7031C138.754 25.5 138.66 26.2344 138.473 26.9062C138.285 27.5781 137.992 28.1641 137.594 28.6641C137.195 29.1641 136.68 29.5508 136.047 29.8242C135.414 30.0977 134.652 30.2344 133.762 30.2344C133.145 30.2344 132.578 30.1484 132.062 29.9766C131.555 29.7969 131.117 29.5156 130.75 29.1328C130.383 28.75 130.098 28.2539 129.895 27.6445C129.699 27.0352 129.602 26.2969 129.602 25.4297V17.3203H130.996V25.4531C130.996 26.1328 131.07 26.6992 131.219 27.1523C131.375 27.6055 131.586 27.9688 131.852 28.2422C132.125 28.5156 132.438 28.7109 132.789 28.8281C133.141 28.9453 133.52 29.0039 133.926 29.0039C134.957 29.0039 135.77 28.8047 136.363 28.4062C136.965 28.0078 137.391 27.4844 137.641 26.8359C137.898 26.1797 138.027 25.4766 138.027 24.7266ZM150.438 26.7656C150.438 26.4219 150.352 26.082 150.18 25.7461C150.008 25.4102 149.676 25.1016 149.184 24.8203C148.699 24.5391 147.984 24.3008 147.039 24.1055C146.336 23.9492 145.707 23.7734 145.152 23.5781C144.605 23.3828 144.145 23.1484 143.77 22.875C143.395 22.6016 143.109 22.2734 142.914 21.8906C142.719 21.5078 142.621 21.0547 142.621 20.5312C142.621 20.0625 142.723 19.6211 142.926 19.207C143.137 18.7852 143.434 18.418 143.816 18.1055C144.207 17.7852 144.676 17.5352 145.223 17.3555C145.777 17.1758 146.398 17.0859 147.086 17.0859C148.062 17.0859 148.898 17.2539 149.594 17.5898C150.297 17.918 150.832 18.3672 151.199 18.9375C151.574 19.5078 151.762 20.1523 151.762 20.8711H150.367C150.367 20.4336 150.238 20.0195 149.98 19.6289C149.73 19.2383 149.359 18.918 148.867 18.668C148.383 18.418 147.789 18.293 147.086 18.293C146.359 18.293 145.77 18.4023 145.316 18.6211C144.863 18.8398 144.531 19.1172 144.32 19.4531C144.117 19.7891 144.016 20.1367 144.016 20.4961C144.016 20.7773 144.059 21.0352 144.145 21.2695C144.238 21.4961 144.402 21.707 144.637 21.9023C144.879 22.0977 145.223 22.2812 145.668 22.4531C146.113 22.625 146.691 22.793 147.402 22.957C148.426 23.1836 149.262 23.4609 149.91 23.7891C150.566 24.1094 151.051 24.5078 151.363 24.9844C151.676 25.4531 151.832 26.0234 151.832 26.6953C151.832 27.2188 151.723 27.6992 151.504 28.1367C151.285 28.5664 150.969 28.9375 150.555 29.25C150.148 29.5625 149.656 29.8047 149.078 29.9766C148.508 30.1484 147.867 30.2344 147.156 30.2344C146.086 30.2344 145.18 30.0586 144.438 29.707C143.703 29.3477 143.145 28.8789 142.762 28.3008C142.387 27.7148 142.199 27.0938 142.199 26.4375H143.594C143.641 27.0938 143.848 27.6133 144.215 27.9961C144.582 28.3711 145.031 28.6367 145.562 28.793C146.102 28.9492 146.633 29.0273 147.156 29.0273C147.875 29.0273 148.477 28.9219 148.961 28.7109C149.445 28.5 149.812 28.2227 150.062 27.8789C150.312 27.5352 150.438 27.1641 150.438 26.7656ZM156.566 17.3203V30H155.172V17.3203H156.566ZM154.926 13.6523C154.926 13.3867 155.008 13.1641 155.172 12.9844C155.344 12.7969 155.578 12.7031 155.875 12.7031C156.172 12.7031 156.406 12.7969 156.578 12.9844C156.758 13.1641 156.848 13.3867 156.848 13.6523C156.848 13.9102 156.758 14.1328 156.578 14.3203C156.406 14.5 156.172 14.5898 155.875 14.5898C155.578 14.5898 155.344 14.5 155.172 14.3203C155.008 14.1328 154.926 13.9102 154.926 13.6523ZM161.793 20.0273V30H160.398V17.3203H161.734L161.793 20.0273ZM161.477 22.875L160.855 22.5234C160.902 21.7734 161.055 21.0703 161.312 20.4141C161.57 19.7578 161.918 19.1797 162.355 18.6797C162.801 18.1797 163.32 17.7891 163.914 17.5078C164.516 17.2266 165.18 17.0859 165.906 17.0859C166.539 17.0859 167.105 17.1719 167.605 17.3438C168.105 17.5156 168.531 17.7891 168.883 18.1641C169.234 18.5391 169.5 19.0195 169.68 19.6055C169.867 20.1914 169.961 20.9062 169.961 21.75V30H168.555V21.7383C168.555 20.8633 168.434 20.1797 168.191 19.6875C167.949 19.1875 167.605 18.832 167.16 18.6211C166.715 18.4102 166.188 18.3047 165.578 18.3047C164.906 18.3047 164.316 18.4531 163.809 18.75C163.309 19.0391 162.887 19.418 162.543 19.8867C162.207 20.3477 161.949 20.8438 161.77 21.375C161.59 21.8984 161.492 22.3984 161.477 22.875ZM178.492 30.2344C177.664 30.2344 176.902 30.082 176.207 29.7773C175.52 29.4727 174.918 29.043 174.402 28.4883C173.895 27.9336 173.5 27.2773 173.219 26.5195C172.945 25.7539 172.809 24.918 172.809 24.0117V23.5078C172.809 22.5312 172.953 21.6484 173.242 20.8594C173.531 20.0703 173.93 19.3945 174.438 18.832C174.945 18.2695 175.523 17.8398 176.172 17.543C176.828 17.2383 177.516 17.0859 178.234 17.0859C179.039 17.0859 179.754 17.2305 180.379 17.5195C181.004 17.8008 181.527 18.2031 181.949 18.7266C182.379 19.2422 182.703 19.8555 182.922 20.5664C183.141 21.2695 183.25 22.0469 183.25 22.8984V23.7539H173.652V22.5586H181.855V22.3945C181.84 21.6836 181.695 21.0195 181.422 20.4023C181.156 19.7773 180.758 19.2695 180.227 18.8789C179.695 18.4883 179.031 18.293 178.234 18.293C177.641 18.293 177.094 18.418 176.594 18.668C176.102 18.918 175.676 19.2773 175.316 19.7461C174.965 20.207 174.691 20.7578 174.496 21.3984C174.309 22.0312 174.215 22.7344 174.215 23.5078V24.0117C174.215 24.7148 174.316 25.3711 174.52 25.9805C174.73 26.582 175.027 27.1133 175.41 27.5742C175.801 28.0352 176.262 28.3945 176.793 28.6523C177.324 28.9102 177.91 29.0391 178.551 29.0391C179.301 29.0391 179.965 28.9023 180.543 28.6289C181.121 28.3477 181.641 27.9062 182.102 27.3047L182.98 27.9844C182.707 28.3906 182.363 28.7656 181.949 29.1094C181.543 29.4531 181.055 29.7266 180.484 29.9297C179.914 30.1328 179.25 30.2344 178.492 30.2344ZM193.609 26.7656C193.609 26.4219 193.523 26.082 193.352 25.7461C193.18 25.4102 192.848 25.1016 192.355 24.8203C191.871 24.5391 191.156 24.3008 190.211 24.1055C189.508 23.9492 188.879 23.7734 188.324 23.5781C187.777 23.3828 187.316 23.1484 186.941 22.875C186.566 22.6016 186.281 22.2734 186.086 21.8906C185.891 21.5078 185.793 21.0547 185.793 20.5312C185.793 20.0625 185.895 19.6211 186.098 19.207C186.309 18.7852 186.605 18.418 186.988 18.1055C187.379 17.7852 187.848 17.5352 188.395 17.3555C188.949 17.1758 189.57 17.0859 190.258 17.0859C191.234 17.0859 192.07 17.2539 192.766 17.5898C193.469 17.918 194.004 18.3672 194.371 18.9375C194.746 19.5078 194.934 20.1523 194.934 20.8711H193.539C193.539 20.4336 193.41 20.0195 193.152 19.6289C192.902 19.2383 192.531 18.918 192.039 18.668C191.555 18.418 190.961 18.293 190.258 18.293C189.531 18.293 188.941 18.4023 188.488 18.6211C188.035 18.8398 187.703 19.1172 187.492 19.4531C187.289 19.7891 187.188 20.1367 187.188 20.4961C187.188 20.7773 187.23 21.0352 187.316 21.2695C187.41 21.4961 187.574 21.707 187.809 21.9023C188.051 22.0977 188.395 22.2812 188.84 22.4531C189.285 22.625 189.863 22.793 190.574 22.957C191.598 23.1836 192.434 23.4609 193.082 23.7891C193.738 24.1094 194.223 24.5078 194.535 24.9844C194.848 25.4531 195.004 26.0234 195.004 26.6953C195.004 27.2188 194.895 27.6992 194.676 28.1367C194.457 28.5664 194.141 28.9375 193.727 29.25C193.32 29.5625 192.828 29.8047 192.25 29.9766C191.68 30.1484 191.039 30.2344 190.328 30.2344C189.258 30.2344 188.352 30.0586 187.609 29.707C186.875 29.3477 186.316 28.8789 185.934 28.3008C185.559 27.7148 185.371 27.0938 185.371 26.4375H186.766C186.812 27.0938 187.02 27.6133 187.387 27.9961C187.754 28.3711 188.203 28.6367 188.734 28.793C189.273 28.9492 189.805 29.0273 190.328 29.0273C191.047 29.0273 191.648 28.9219 192.133 28.7109C192.617 28.5 192.984 28.2227 193.234 27.8789C193.484 27.5352 193.609 27.1641 193.609 26.7656ZM205.773 26.7656C205.773 26.4219 205.688 26.082 205.516 25.7461C205.344 25.4102 205.012 25.1016 204.52 24.8203C204.035 24.5391 203.32 24.3008 202.375 24.1055C201.672 23.9492 201.043 23.7734 200.488 23.5781C199.941 23.3828 199.48 23.1484 199.105 22.875C198.73 22.6016 198.445 22.2734 198.25 21.8906C198.055 21.5078 197.957 21.0547 197.957 20.5312C197.957 20.0625 198.059 19.6211 198.262 19.207C198.473 18.7852 198.77 18.418 199.152 18.1055C199.543 17.7852 200.012 17.5352 200.559 17.3555C201.113 17.1758 201.734 17.0859 202.422 17.0859C203.398 17.0859 204.234 17.2539 204.93 17.5898C205.633 17.918 206.168 18.3672 206.535 18.9375C206.91 19.5078 207.098 20.1523 207.098 20.8711H205.703C205.703 20.4336 205.574 20.0195 205.316 19.6289C205.066 19.2383 204.695 18.918 204.203 18.668C203.719 18.418 203.125 18.293 202.422 18.293C201.695 18.293 201.105 18.4023 200.652 18.6211C200.199 18.8398 199.867 19.1172 199.656 19.4531C199.453 19.7891 199.352 20.1367 199.352 20.4961C199.352 20.7773 199.395 21.0352 199.48 21.2695C199.574 21.4961 199.738 21.707 199.973 21.9023C200.215 22.0977 200.559 22.2812 201.004 22.4531C201.449 22.625 202.027 22.793 202.738 22.957C203.762 23.1836 204.598 23.4609 205.246 23.7891C205.902 24.1094 206.387 24.5078 206.699 24.9844C207.012 25.4531 207.168 26.0234 207.168 26.6953C207.168 27.2188 207.059 27.6992 206.84 28.1367C206.621 28.5664 206.305 28.9375 205.891 29.25C205.484 29.5625 204.992 29.8047 204.414 29.9766C203.844 30.1484 203.203 30.2344 202.492 30.2344C201.422 30.2344 200.516 30.0586 199.773 29.707C199.039 29.3477 198.48 28.8789 198.098 28.3008C197.723 27.7148 197.535 27.0938 197.535 26.4375H198.93C198.977 27.0938 199.184 27.6133 199.551 27.9961C199.918 28.3711 200.367 28.6367 200.898 28.793C201.438 28.9492 201.969 29.0273 202.492 29.0273C203.211 29.0273 203.812 28.9219 204.297 28.7109C204.781 28.5 205.148 28.2227 205.398 27.8789C205.648 27.5352 205.773 27.1641 205.773 26.7656ZM116.324 55H119.594V45.9883C119.703 45.8164 119.824 45.6602 119.957 45.5195C120.09 45.3789 120.238 45.2578 120.402 45.1562C120.605 45.0156 120.836 44.9102 121.094 44.8398C121.359 44.7695 121.648 44.7344 121.961 44.7344C122.336 44.7344 122.672 44.7734 122.969 44.8516C123.266 44.9219 123.52 45.0508 123.73 45.2383C123.941 45.4258 124.102 45.6836 124.211 46.0117C124.328 46.332 124.387 46.7422 124.387 47.2422V55H127.645V47.1953C127.645 46.2734 127.535 45.4922 127.316 44.8516C127.105 44.2031 126.809 43.6719 126.426 43.2578C126.035 42.8516 125.574 42.5547 125.043 42.3672C124.512 42.1797 123.926 42.0859 123.285 42.0859C122.785 42.0859 122.312 42.1562 121.867 42.2969C121.422 42.4375 121.012 42.6406 120.637 42.9062C120.418 43.0625 120.211 43.2383 120.016 43.4336C119.82 43.6289 119.641 43.8438 119.477 44.0781L119.277 42.3203H116.324V55ZM148.891 55.2344C150.117 55.2344 151.18 54.9961 152.078 54.5195C152.977 54.043 153.633 53.5117 154.047 52.9258L152.418 51.168C152.043 51.6523 151.555 52.0156 150.953 52.2578C150.352 52.5 149.73 52.6211 149.09 52.6211C148.637 52.6211 148.219 52.5508 147.836 52.4102C147.453 52.2695 147.113 52.0703 146.816 51.8125C146.527 51.5625 146.297 51.2852 146.125 50.9805C145.953 50.668 145.812 50.2578 145.703 49.75V49.7148H154.305V48.332C154.305 47.4023 154.176 46.5547 153.918 45.7891C153.66 45.0156 153.285 44.3555 152.793 43.8086C152.293 43.2617 151.684 42.8398 150.965 42.543C150.254 42.2383 149.441 42.0859 148.527 42.0859C147.645 42.0859 146.828 42.2461 146.078 42.5664C145.328 42.8867 144.68 43.3359 144.133 43.9141C143.586 44.4922 143.16 45.1836 142.855 45.9883C142.551 46.7852 142.398 47.668 142.398 48.6367V49.1055C142.398 49.957 142.551 50.7578 142.855 51.5078C143.168 52.25 143.609 52.8945 144.18 53.4414C144.75 53.9961 145.434 54.4336 146.23 54.7539C147.027 55.0742 147.914 55.2344 148.891 55.2344ZM148.504 44.7227C148.918 44.7227 149.281 44.7891 149.594 44.9219C149.914 45.0469 150.184 45.2188 150.402 45.4375C150.621 45.6641 150.793 45.9297 150.918 46.2344C151.043 46.5391 151.105 46.8633 151.105 47.207V47.4648H145.762C145.84 47.0508 145.957 46.6758 146.113 46.3398C146.27 46.0039 146.465 45.7148 146.699 45.4727C146.926 45.2305 147.191 45.0469 147.496 44.9219C147.801 44.7891 148.137 44.7227 148.504 44.7227ZM170.09 55H172.949L174.297 48.2266L174.555 46.9375L174.824 48.2266L176.219 55H179.078L181.352 42.3203H178.363L177.426 49.7969L177.262 51.0273L177.039 49.8203L175.668 42.3203H173.488L172.117 49.8555L171.895 51.0625L171.742 49.8555L170.793 42.3203H167.816L170.09 55ZM203.746 51.5195C203.746 51.7148 203.695 51.8945 203.594 52.0586C203.5 52.2227 203.355 52.3672 203.16 52.4922C202.957 52.6172 202.695 52.7188 202.375 52.7969C202.062 52.8672 201.695 52.9023 201.273 52.9023C200.922 52.9023 200.578 52.8672 200.242 52.7969C199.914 52.7266 199.621 52.6133 199.363 52.457C199.105 52.3086 198.895 52.1133 198.73 51.8711C198.566 51.6211 198.473 51.3242 198.449 50.9805H195.344C195.344 51.4961 195.469 52.0117 195.719 52.5273C195.977 53.0352 196.352 53.4883 196.844 53.8867C197.336 54.293 197.945 54.6211 198.672 54.8711C199.406 55.1211 200.25 55.2461 201.203 55.2461C202.07 55.2461 202.855 55.1523 203.559 54.9648C204.262 54.7695 204.863 54.5 205.363 54.1562C205.855 53.8125 206.234 53.4062 206.5 52.9375C206.773 52.4609 206.91 51.9414 206.91 51.3789C206.91 50.7695 206.773 50.2461 206.5 49.8086C206.234 49.3633 205.863 48.9844 205.387 48.6719C204.91 48.3672 204.344 48.1172 203.688 47.9219C203.031 47.7266 202.32 47.5664 201.555 47.4414C201.023 47.3633 200.586 47.2734 200.242 47.1719C199.898 47.0625 199.629 46.9414 199.434 46.8086C199.23 46.6836 199.09 46.543 199.012 46.3867C198.934 46.2227 198.895 46.0469 198.895 45.8594C198.895 45.6719 198.938 45.4961 199.023 45.332C199.117 45.1602 199.25 45.0117 199.422 44.8867C199.609 44.7461 199.852 44.6367 200.148 44.5586C200.445 44.4805 200.793 44.4414 201.191 44.4414C201.66 44.4414 202.059 44.5 202.387 44.6172C202.723 44.7344 202.988 44.8906 203.184 45.0859C203.324 45.2344 203.43 45.4023 203.5 45.5898C203.57 45.7695 203.605 45.9648 203.605 46.1758H206.863C206.863 45.5898 206.734 45.0469 206.477 44.5469C206.219 44.0469 205.848 43.6133 205.363 43.2461C204.871 42.8867 204.273 42.6055 203.57 42.4023C202.867 42.1914 202.074 42.0859 201.191 42.0859C200.348 42.0859 199.59 42.1914 198.918 42.4023C198.246 42.6133 197.676 42.8984 197.207 43.2578C196.738 43.6172 196.379 44.0352 196.129 44.5117C195.879 44.9883 195.754 45.4883 195.754 46.0117C195.754 46.5508 195.875 47.0273 196.117 47.4414C196.367 47.8555 196.711 48.2188 197.148 48.5312C197.586 48.8516 198.109 49.125 198.719 49.3516C199.336 49.5703 200.016 49.7539 200.758 49.9023C201.344 50.0117 201.828 50.1211 202.211 50.2305C202.594 50.3398 202.902 50.457 203.137 50.582C203.363 50.7148 203.52 50.8555 203.605 51.0039C203.699 51.1523 203.746 51.3242 203.746 51.5195Z" fill="#5E3286"/>
<line x1="80.0061" y1="35" x2="240.006" y2="35.9697" stroke="#89FBBB" stroke-width="2"/>
</svg>
