<svg width="176" height="22" viewBox="0 0 176 22" fill="none" xmlns="http://www.w3.org/2000/svg">
<rect width="176" height="22" rx="5" fill="white" fill-opacity="0.9"/>
<path d="M11.2725 13H9.82227L9.83105 12.5386H11.2725C11.7324 12.5386 12.1279 12.436 12.459 12.231C12.793 12.0229 13.0508 11.7358 13.2324 11.3696C13.4141 11.0034 13.5049 10.5786 13.5049 10.0952V9.49756C13.5049 9.12842 13.4521 8.79443 13.3467 8.49561C13.2441 8.19678 13.0962 7.94189 12.9028 7.73096C12.7095 7.51709 12.478 7.35303 12.2085 7.23877C11.9419 7.12451 11.6431 7.06738 11.312 7.06738H9.7959V6.60156H11.312C11.7104 6.60156 12.0752 6.67041 12.4062 6.80811C12.7402 6.94287 13.0288 7.13916 13.272 7.39697C13.5181 7.65186 13.707 7.95801 13.8389 8.31543C13.9736 8.67285 14.041 9.07129 14.041 9.51074V10.0952C14.041 10.5347 13.9736 10.9331 13.8389 11.2905C13.707 11.6479 13.5181 11.9541 13.272 12.209C13.0259 12.4639 12.7344 12.6602 12.3975 12.7979C12.0605 12.9326 11.6855 13 11.2725 13ZM10.064 6.60156V13H9.52344V6.60156H10.064ZM20.145 9.45801V10.1436C20.145 10.5918 20.0864 10.9976 19.9692 11.3608C19.855 11.7212 19.688 12.0303 19.4683 12.2881C19.2515 12.5459 18.9907 12.7437 18.686 12.8813C18.3813 13.019 18.0386 13.0879 17.6577 13.0879C17.2856 13.0879 16.9458 13.019 16.6382 12.8813C16.3335 12.7437 16.0713 12.5459 15.8516 12.2881C15.6318 12.0303 15.4619 11.7212 15.3418 11.3608C15.2217 10.9976 15.1616 10.5918 15.1616 10.1436V9.45801C15.1616 9.00977 15.2202 8.60547 15.3374 8.24512C15.4575 7.88184 15.6274 7.57129 15.8472 7.31348C16.0669 7.05566 16.3291 6.85791 16.6338 6.72021C16.9385 6.58252 17.2769 6.51367 17.6489 6.51367C18.0298 6.51367 18.3726 6.58252 18.6772 6.72021C18.9819 6.85791 19.2441 7.05566 19.4639 7.31348C19.6836 7.57129 19.8521 7.88184 19.9692 8.24512C20.0864 8.60547 20.145 9.00977 20.145 9.45801ZM19.6089 10.1436V9.44922C19.6089 9.07129 19.5649 8.73145 19.4771 8.42969C19.3921 8.12793 19.2646 7.87012 19.0947 7.65625C18.9277 7.44238 18.7227 7.27832 18.4795 7.16406C18.2363 7.0498 17.9595 6.99268 17.6489 6.99268C17.3472 6.99268 17.0762 7.0498 16.8359 7.16406C16.5957 7.27832 16.3906 7.44238 16.2207 7.65625C16.0537 7.87012 15.9248 8.12793 15.834 8.42969C15.7461 8.73145 15.7021 9.07129 15.7021 9.44922V10.1436C15.7021 10.5244 15.7461 10.8672 15.834 11.1719C15.9248 11.4736 16.0552 11.7329 16.2251 11.9497C16.395 12.1636 16.6001 12.3276 16.8403 12.4419C17.0835 12.5562 17.356 12.6133 17.6577 12.6133C17.9712 12.6133 18.248 12.5562 18.4883 12.4419C18.7285 12.3276 18.9321 12.1636 19.0991 11.9497C19.2661 11.7329 19.3921 11.4736 19.4771 11.1719C19.5649 10.8672 19.6089 10.5244 19.6089 10.1436ZM25.2119 12.5386V13H21.894V12.5386H25.2119ZM22.0522 6.60156V13H21.5117V6.60156H22.0522ZM29.3296 10.1172L28.2397 9.85791L28.6133 6.60156H32.2783V7.68701H29.7383L29.5845 9.03613C29.6636 8.98926 29.7881 8.93799 29.958 8.88232C30.1279 8.82373 30.3184 8.79443 30.5293 8.79443C30.8428 8.79443 31.1211 8.84277 31.3643 8.93945C31.6074 9.03613 31.8125 9.17676 31.9795 9.36133C32.1494 9.54297 32.2769 9.76709 32.3618 10.0337C32.4497 10.3003 32.4937 10.6035 32.4937 10.9434C32.4937 11.2246 32.4497 11.4941 32.3618 11.752C32.2739 12.0068 32.1392 12.2354 31.9575 12.4375C31.7788 12.6367 31.5518 12.7949 31.2764 12.9121C31.001 13.0293 30.6772 13.0879 30.3052 13.0879C30.0239 13.0879 29.7515 13.0454 29.4878 12.9604C29.2241 12.8755 28.9868 12.7524 28.7759 12.5913C28.5679 12.4272 28.4023 12.228 28.2793 11.9937C28.1592 11.7593 28.0977 11.4956 28.0947 11.2026H29.4658C29.4805 11.3726 29.5229 11.519 29.5933 11.6421C29.6636 11.7622 29.7588 11.856 29.8789 11.9233C29.999 11.9878 30.1382 12.02 30.2964 12.02C30.4487 12.02 30.5776 11.9907 30.6831 11.9321C30.7886 11.8706 30.8721 11.7871 30.9336 11.6816C30.998 11.5762 31.0449 11.4531 31.0742 11.3125C31.1035 11.1719 31.1182 11.021 31.1182 10.8599C31.1182 10.6929 31.0991 10.5435 31.061 10.4116C31.0229 10.2769 30.9644 10.1626 30.8853 10.0688C30.8062 9.97217 30.7051 9.89893 30.582 9.84912C30.4619 9.79639 30.3169 9.77002 30.147 9.77002C29.9243 9.77002 29.75 9.80664 29.624 9.87988C29.498 9.95312 29.3999 10.0322 29.3296 10.1172ZM34.6514 11.9058L34.6426 12.8022C34.6426 13.1421 34.5591 13.4805 34.3921 13.8174C34.2251 14.1572 34.0156 14.4355 33.7637 14.6523L33.0605 14.3052C33.1279 14.1704 33.1968 14.0342 33.2671 13.8965C33.3403 13.7617 33.4004 13.6123 33.4473 13.4482C33.4971 13.2842 33.522 13.0923 33.522 12.8726V11.9058H34.6514ZM40.0391 11.9321V13H35.6182V12.0947L37.6836 9.90625C37.877 9.68359 38.0308 9.4873 38.145 9.31738C38.2622 9.14746 38.3472 8.99365 38.3999 8.85596C38.4526 8.71533 38.479 8.58643 38.479 8.46924C38.479 8.27881 38.4482 8.11768 38.3867 7.98584C38.3281 7.854 38.2417 7.75293 38.1274 7.68262C38.0132 7.6123 37.874 7.57715 37.71 7.57715C37.5342 7.57715 37.3833 7.62256 37.2573 7.71338C37.1313 7.8042 37.0347 7.93018 36.9673 8.09131C36.8999 8.24951 36.8662 8.42969 36.8662 8.63184H35.4863C35.4863 8.24219 35.5801 7.8877 35.7676 7.56836C35.9551 7.24609 36.2173 6.98975 36.5542 6.79932C36.8911 6.60596 37.2852 6.50928 37.7363 6.50928C38.1992 6.50928 38.5874 6.58252 38.9009 6.729C39.2144 6.87549 39.4517 7.08496 39.6128 7.35742C39.7739 7.62988 39.8545 7.95801 39.8545 8.3418C39.8545 8.55859 39.8193 8.76807 39.749 8.97021C39.6816 9.17236 39.5835 9.37305 39.4546 9.57227C39.3257 9.77148 39.1704 9.9751 38.9888 10.1831C38.8071 10.3882 38.6021 10.605 38.3735 10.8335L37.4067 11.9321H40.0391ZM45.1895 11.2422C45.1895 11.6465 45.0942 11.9863 44.9038 12.2617C44.7134 12.5371 44.4526 12.7437 44.1216 12.8813C43.7935 13.019 43.4185 13.0879 42.9966 13.0879C42.5776 13.0879 42.2012 13.019 41.8672 12.8813C41.5361 12.7437 41.2739 12.5371 41.0806 12.2617C40.8872 11.9863 40.7905 11.6465 40.7905 11.2422C40.7905 10.9668 40.8447 10.7192 40.9531 10.4995C41.0645 10.2798 41.2183 10.0923 41.4146 9.93701C41.6138 9.78174 41.8467 9.66309 42.1133 9.58105C42.3828 9.49902 42.6743 9.45801 42.9878 9.45801C43.4097 9.45801 43.7861 9.53125 44.1172 9.67773C44.4512 9.82129 44.7134 10.0264 44.9038 10.293C45.0942 10.5596 45.1895 10.876 45.1895 11.2422ZM43.8096 11.1411C43.8096 10.9536 43.7744 10.7954 43.7041 10.6665C43.6367 10.5347 43.5415 10.4336 43.4185 10.3633C43.2954 10.29 43.1519 10.2534 42.9878 10.2534C42.8237 10.2534 42.6802 10.29 42.5571 10.3633C42.4341 10.4336 42.3374 10.5347 42.2671 10.6665C42.1997 10.7954 42.166 10.9536 42.166 11.1411C42.166 11.3228 42.2012 11.481 42.2715 11.6157C42.3418 11.7476 42.4385 11.8486 42.5615 11.9189C42.6846 11.9863 42.8296 12.02 42.9966 12.02C43.1636 12.02 43.3071 11.9863 43.4272 11.9189C43.5474 11.8486 43.6411 11.7476 43.7085 11.6157C43.7759 11.481 43.8096 11.3228 43.8096 11.1411ZM45.0532 8.30225C45.0532 8.6333 44.9653 8.9248 44.7896 9.17676C44.6167 9.42578 44.375 9.62061 44.0645 9.76123C43.7539 9.89893 43.3979 9.96777 42.9966 9.96777C42.5952 9.96777 42.2378 9.89893 41.9243 9.76123C41.6138 9.62061 41.3691 9.42578 41.1904 9.17676C41.0146 8.9248 40.9268 8.6333 40.9268 8.30225C40.9268 7.91553 41.0146 7.58887 41.1904 7.32227C41.3691 7.05566 41.6138 6.85352 41.9243 6.71582C42.2349 6.57812 42.5894 6.50928 42.9878 6.50928C43.3921 6.50928 43.7495 6.57812 44.0601 6.71582C44.3706 6.85352 44.6138 7.05566 44.7896 7.32227C44.9653 7.58887 45.0532 7.91553 45.0532 8.30225ZM43.6821 8.37256C43.6821 8.21143 43.6543 8.07227 43.5986 7.95508C43.5459 7.83496 43.4683 7.74268 43.3657 7.67822C43.2632 7.61084 43.1372 7.57715 42.9878 7.57715C42.8442 7.57715 42.7212 7.60938 42.6187 7.67383C42.5161 7.73535 42.437 7.82617 42.3813 7.94629C42.3286 8.06348 42.3022 8.20557 42.3022 8.37256C42.3022 8.53662 42.3286 8.68018 42.3813 8.80322C42.437 8.92334 42.5161 9.01855 42.6187 9.08887C42.7241 9.15625 42.8501 9.18994 42.9966 9.18994C43.146 9.18994 43.2705 9.15625 43.3701 9.08887C43.4727 9.01855 43.5503 8.92334 43.603 8.80322C43.6558 8.68018 43.6821 8.53662 43.6821 8.37256ZM66.0679 12.5386V13H62.4688V12.5386H66.0679ZM62.6313 6.60156V13H62.0908V6.60156H62.6313ZM65.6196 9.47119V9.93262H62.4688V9.47119H65.6196ZM66.0459 6.60156V7.06738H62.4688V6.60156H66.0459ZM71.0776 6.60156H71.6182V10.9346C71.6182 11.415 71.5171 11.8149 71.3149 12.1343C71.1128 12.4536 70.8403 12.6924 70.4976 12.8506C70.1577 13.0088 69.7812 13.0879 69.3682 13.0879C68.9434 13.0879 68.561 13.0088 68.2212 12.8506C67.8813 12.6924 67.6118 12.4536 67.4126 12.1343C67.2163 11.8149 67.1182 11.415 67.1182 10.9346V6.60156H67.6543V10.9346C67.6543 11.3066 67.7275 11.6187 67.874 11.8706C68.0205 12.1226 68.2227 12.3115 68.4805 12.4375C68.7383 12.5635 69.0342 12.6265 69.3682 12.6265C69.6992 12.6265 69.9937 12.5635 70.2515 12.4375C70.5093 12.3115 70.7114 12.1226 70.8579 11.8706C71.0044 11.6187 71.0776 11.3066 71.0776 10.9346V6.60156ZM73.1255 6.60156H75.2041C75.6465 6.60156 76.0303 6.67334 76.3555 6.81689C76.6807 6.96045 76.9312 7.17285 77.1069 7.4541C77.2856 7.73242 77.375 8.0752 77.375 8.48242C77.375 8.78418 77.3105 9.05811 77.1816 9.3042C77.0557 9.55029 76.8813 9.75684 76.6587 9.92383C76.436 10.0879 76.1782 10.2007 75.8853 10.2622L75.6963 10.3325H73.4771L73.4683 9.87109H75.3271C75.6611 9.87109 75.9395 9.80664 76.1621 9.67773C76.3848 9.54883 76.5518 9.37891 76.6631 9.16797C76.7773 8.9541 76.8345 8.72559 76.8345 8.48242C76.8345 8.19238 76.7715 7.94189 76.6455 7.73096C76.5225 7.51709 76.3394 7.35303 76.0962 7.23877C75.853 7.12451 75.5557 7.06738 75.2041 7.06738H73.666V13H73.1255V6.60156ZM77.0762 13L75.4194 10.1392L75.9995 10.1348L77.6519 12.9429V13H77.0762ZM81.9321 10.1172L80.8423 9.85791L81.2158 6.60156H84.8809V7.68701H82.3408L82.187 9.03613C82.2661 8.98926 82.3906 8.93799 82.5605 8.88232C82.7305 8.82373 82.9209 8.79443 83.1318 8.79443C83.4453 8.79443 83.7236 8.84277 83.9668 8.93945C84.21 9.03613 84.415 9.17676 84.582 9.36133C84.752 9.54297 84.8794 9.76709 84.9644 10.0337C85.0522 10.3003 85.0962 10.6035 85.0962 10.9434C85.0962 11.2246 85.0522 11.4941 84.9644 11.752C84.8765 12.0068 84.7417 12.2354 84.5601 12.4375C84.3813 12.6367 84.1543 12.7949 83.8789 12.9121C83.6035 13.0293 83.2798 13.0879 82.9077 13.0879C82.6265 13.0879 82.354 13.0454 82.0903 12.9604C81.8267 12.8755 81.5894 12.7524 81.3784 12.5913C81.1704 12.4272 81.0049 12.228 80.8818 11.9937C80.7617 11.7593 80.7002 11.4956 80.6973 11.2026H82.0684C82.083 11.3726 82.1255 11.519 82.1958 11.6421C82.2661 11.7622 82.3613 11.856 82.4814 11.9233C82.6016 11.9878 82.7407 12.02 82.8989 12.02C83.0513 12.02 83.1802 11.9907 83.2856 11.9321C83.3911 11.8706 83.4746 11.7871 83.5361 11.6816C83.6006 11.5762 83.6475 11.4531 83.6768 11.3125C83.7061 11.1719 83.7207 11.021 83.7207 10.8599C83.7207 10.6929 83.7017 10.5435 83.6636 10.4116C83.6255 10.2769 83.5669 10.1626 83.4878 10.0688C83.4087 9.97217 83.3076 9.89893 83.1846 9.84912C83.0645 9.79639 82.9194 9.77002 82.7495 9.77002C82.5269 9.77002 82.3525 9.80664 82.2266 9.87988C82.1006 9.95312 82.0024 10.0322 81.9321 10.1172ZM87.2539 11.9058L87.2451 12.8022C87.2451 13.1421 87.1616 13.4805 86.9946 13.8174C86.8276 14.1572 86.6182 14.4355 86.3662 14.6523L85.6631 14.3052C85.7305 14.1704 85.7993 14.0342 85.8696 13.8965C85.9429 13.7617 86.0029 13.6123 86.0498 13.4482C86.0996 13.2842 86.1245 13.0923 86.1245 12.8726V11.9058H87.2539ZM92.6196 6.60156V7.33984L90.1851 13H88.7349L91.1694 7.66943H88.0493V6.60156H92.6196ZM97.8359 11.9321V13H93.415V12.0947L95.4805 9.90625C95.6738 9.68359 95.8276 9.4873 95.9419 9.31738C96.0591 9.14746 96.144 8.99365 96.1968 8.85596C96.2495 8.71533 96.2759 8.58643 96.2759 8.46924C96.2759 8.27881 96.2451 8.11768 96.1836 7.98584C96.125 7.854 96.0386 7.75293 95.9243 7.68262C95.8101 7.6123 95.6709 7.57715 95.5068 7.57715C95.3311 7.57715 95.1802 7.62256 95.0542 7.71338C94.9282 7.8042 94.8315 7.93018 94.7642 8.09131C94.6968 8.24951 94.6631 8.42969 94.6631 8.63184H93.2832C93.2832 8.24219 93.377 7.8877 93.5645 7.56836C93.752 7.24609 94.0142 6.98975 94.3511 6.79932C94.688 6.60596 95.082 6.50928 95.5332 6.50928C95.9961 6.50928 96.3843 6.58252 96.6978 6.729C97.0112 6.87549 97.2485 7.08496 97.4097 7.35742C97.5708 7.62988 97.6514 7.95801 97.6514 8.3418C97.6514 8.55859 97.6162 8.76807 97.5459 8.97021C97.4785 9.17236 97.3804 9.37305 97.2515 9.57227C97.1226 9.77148 96.9673 9.9751 96.7856 10.1831C96.604 10.3882 96.3989 10.605 96.1704 10.8335L95.2036 11.9321H97.8359ZM115.353 6.60156V13H114.812V6.60156H115.353ZM119.294 9.92383H117.493L117.484 9.4668H119.035C119.352 9.4668 119.621 9.42139 119.844 9.33057C120.066 9.23975 120.235 9.10498 120.349 8.92627C120.466 8.74463 120.525 8.52197 120.525 8.2583C120.525 7.98877 120.468 7.76611 120.354 7.59033C120.239 7.41162 120.068 7.27979 119.839 7.19482C119.611 7.10986 119.324 7.06738 118.978 7.06738H117.633V13H117.093V6.60156H118.978C119.303 6.60156 119.595 6.63379 119.853 6.69824C120.11 6.7627 120.33 6.86377 120.512 7.00146C120.693 7.13916 120.831 7.31348 120.925 7.52441C121.021 7.73242 121.07 7.98145 121.07 8.27148C121.07 8.53516 121.011 8.77393 120.894 8.98779C120.777 9.19873 120.611 9.37158 120.397 9.50635C120.187 9.63818 119.933 9.72021 119.637 9.75244L119.294 9.92383ZM119.255 13H117.321L117.598 12.5386H119.255C119.571 12.5386 119.841 12.4858 120.063 12.3804C120.289 12.272 120.462 12.1182 120.582 11.9189C120.702 11.7197 120.762 11.4824 120.762 11.207C120.762 10.9639 120.709 10.7456 120.604 10.5522C120.499 10.3589 120.337 10.2065 120.121 10.0952C119.904 9.98096 119.628 9.92383 119.294 9.92383H118.174L118.183 9.4668H119.769L119.866 9.62939C120.153 9.65869 120.403 9.74805 120.617 9.89746C120.834 10.0439 121.001 10.23 121.118 10.4556C121.238 10.6812 121.298 10.9287 121.298 11.1982C121.298 11.585 121.212 11.9131 121.039 12.1826C120.869 12.4492 120.63 12.6528 120.323 12.7935C120.018 12.9312 119.662 13 119.255 13ZM127.336 9.45801V10.1436C127.336 10.5918 127.278 10.9976 127.161 11.3608C127.046 11.7212 126.879 12.0303 126.66 12.2881C126.443 12.5459 126.182 12.7437 125.877 12.8813C125.573 13.019 125.23 13.0879 124.849 13.0879C124.477 13.0879 124.137 13.019 123.83 12.8813C123.525 12.7437 123.263 12.5459 123.043 12.2881C122.823 12.0303 122.653 11.7212 122.533 11.3608C122.413 10.9976 122.353 10.5918 122.353 10.1436V9.45801C122.353 9.00977 122.412 8.60547 122.529 8.24512C122.649 7.88184 122.819 7.57129 123.039 7.31348C123.258 7.05566 123.521 6.85791 123.825 6.72021C124.13 6.58252 124.468 6.51367 124.84 6.51367C125.221 6.51367 125.564 6.58252 125.869 6.72021C126.173 6.85791 126.436 7.05566 126.655 7.31348C126.875 7.57129 127.043 7.88184 127.161 8.24512C127.278 8.60547 127.336 9.00977 127.336 9.45801ZM126.8 10.1436V9.44922C126.8 9.07129 126.756 8.73145 126.668 8.42969C126.583 8.12793 126.456 7.87012 126.286 7.65625C126.119 7.44238 125.914 7.27832 125.671 7.16406C125.428 7.0498 125.151 6.99268 124.84 6.99268C124.539 6.99268 124.268 7.0498 124.027 7.16406C123.787 7.27832 123.582 7.44238 123.412 7.65625C123.245 7.87012 123.116 8.12793 123.025 8.42969C122.938 8.73145 122.894 9.07129 122.894 9.44922V10.1436C122.894 10.5244 122.938 10.8672 123.025 11.1719C123.116 11.4736 123.247 11.7329 123.417 11.9497C123.586 12.1636 123.792 12.3276 124.032 12.4419C124.275 12.5562 124.547 12.6133 124.849 12.6133C125.163 12.6133 125.439 12.5562 125.68 12.4419C125.92 12.3276 126.124 12.1636 126.291 11.9497C126.458 11.7329 126.583 11.4736 126.668 11.1719C126.756 10.8672 126.8 10.5244 126.8 10.1436ZM130.606 12.2046L132.623 6.60156H133.212L130.83 13H130.395L130.606 12.2046ZM128.523 6.60156L130.531 12.2046L130.751 13H130.312L127.934 6.60156H128.523ZM138.736 9.71289V10.7852H136.178V9.71289H138.736ZM142.985 6.59717V13H141.61V8.16162L140.125 8.61426V7.55078L142.849 6.59717H142.985ZM146.352 11.9058L146.343 12.8022C146.343 13.1421 146.259 13.4805 146.092 13.8174C145.925 14.1572 145.716 14.4355 145.464 14.6523L144.761 14.3052C144.828 14.1704 144.897 14.0342 144.967 13.8965C145.041 13.7617 145.101 13.6123 145.147 13.4482C145.197 13.2842 145.222 13.0923 145.222 12.8726V11.9058H146.352ZM150.5 6.59717V13H149.125V8.16162L147.639 8.61426V7.55078L150.364 6.59717H150.5ZM156.89 11.2422C156.89 11.6465 156.794 11.9863 156.604 12.2617C156.414 12.5371 156.153 12.7437 155.822 12.8813C155.494 13.019 155.119 13.0879 154.697 13.0879C154.278 13.0879 153.901 13.019 153.567 12.8813C153.236 12.7437 152.974 12.5371 152.781 12.2617C152.587 11.9863 152.491 11.6465 152.491 11.2422C152.491 10.9668 152.545 10.7192 152.653 10.4995C152.765 10.2798 152.918 10.0923 153.115 9.93701C153.314 9.78174 153.547 9.66309 153.813 9.58105C154.083 9.49902 154.375 9.45801 154.688 9.45801C155.11 9.45801 155.486 9.53125 155.817 9.67773C156.151 9.82129 156.414 10.0264 156.604 10.293C156.794 10.5596 156.89 10.876 156.89 11.2422ZM155.51 11.1411C155.51 10.9536 155.475 10.7954 155.404 10.6665C155.337 10.5347 155.242 10.4336 155.119 10.3633C154.996 10.29 154.852 10.2534 154.688 10.2534C154.524 10.2534 154.38 10.29 154.257 10.3633C154.134 10.4336 154.038 10.5347 153.967 10.6665C153.9 10.7954 153.866 10.9536 153.866 11.1411C153.866 11.3228 153.901 11.481 153.972 11.6157C154.042 11.7476 154.139 11.8486 154.262 11.9189C154.385 11.9863 154.53 12.02 154.697 12.02C154.864 12.02 155.007 11.9863 155.127 11.9189C155.248 11.8486 155.341 11.7476 155.409 11.6157C155.476 11.481 155.51 11.3228 155.51 11.1411ZM156.753 8.30225C156.753 8.6333 156.666 8.9248 156.49 9.17676C156.317 9.42578 156.075 9.62061 155.765 9.76123C155.454 9.89893 155.098 9.96777 154.697 9.96777C154.295 9.96777 153.938 9.89893 153.625 9.76123C153.314 9.62061 153.069 9.42578 152.891 9.17676C152.715 8.9248 152.627 8.6333 152.627 8.30225C152.627 7.91553 152.715 7.58887 152.891 7.32227C153.069 7.05566 153.314 6.85352 153.625 6.71582C153.935 6.57812 154.29 6.50928 154.688 6.50928C155.092 6.50928 155.45 6.57812 155.76 6.71582C156.071 6.85352 156.314 7.05566 156.49 7.32227C156.666 7.58887 156.753 7.91553 156.753 8.30225ZM155.382 8.37256C155.382 8.21143 155.354 8.07227 155.299 7.95508C155.246 7.83496 155.168 7.74268 155.066 7.67822C154.963 7.61084 154.837 7.57715 154.688 7.57715C154.544 7.57715 154.421 7.60938 154.319 7.67383C154.216 7.73535 154.137 7.82617 154.082 7.94629C154.029 8.06348 154.002 8.20557 154.002 8.37256C154.002 8.53662 154.029 8.68018 154.082 8.80322C154.137 8.92334 154.216 9.01855 154.319 9.08887C154.424 9.15625 154.55 9.18994 154.697 9.18994C154.846 9.18994 154.971 9.15625 155.07 9.08887C155.173 9.01855 155.25 8.92334 155.303 8.80322C155.356 8.68018 155.382 8.53662 155.382 8.37256Z" fill="black"/>
<line x1="48" y1="19.75" x2="128" y2="19.75" stroke="#5F328C" stroke-width="0.5"/>
<path d="M48.4667 9.79997C48.3444 9.67775 48.2833 9.52219 48.2833 9.3333C48.2833 9.14442 48.3444 8.98886 48.4667 8.86664L51.5333 5.79997C51.6 5.7333 51.6722 5.68619 51.75 5.65864C51.8278 5.63064 51.9111 5.61664 52 5.61664C52.0889 5.61664 52.1722 5.63064 52.25 5.65864C52.3278 5.68619 52.4 5.7333 52.4667 5.79997L55.5333 8.86664C55.6555 8.98886 55.7193 9.14153 55.7247 9.32464C55.7304 9.50819 55.6667 9.66664 55.5333 9.79997C55.4111 9.92219 55.2555 9.9833 55.0667 9.9833C54.8778 9.9833 54.7222 9.92219 54.6 9.79997L52 7.21664L49.4 9.79997C49.2778 9.92219 49.1249 9.98619 48.9413 9.99197C48.7582 9.9973 48.6 9.9333 48.4667 9.79997ZM48.4667 13.8C48.3444 13.6777 48.2833 13.5222 48.2833 13.3333C48.2833 13.1444 48.3444 12.9889 48.4667 12.8666L51.5333 9.79997C51.6 9.7333 51.6722 9.68597 51.75 9.65797C51.8278 9.63042 51.9111 9.61664 52 9.61664C52.0889 9.61664 52.1722 9.63042 52.25 9.65797C52.3278 9.68597 52.4 9.7333 52.4667 9.79997L55.5333 12.8666C55.6555 12.9889 55.7193 13.1415 55.7247 13.3246C55.7304 13.5082 55.6667 13.6666 55.5333 13.8C55.4111 13.9222 55.2555 13.9833 55.0667 13.9833C54.8778 13.9833 54.7222 13.9222 54.6 13.8L52 11.2166L49.4 13.8C49.2778 13.9222 49.1249 13.9862 48.9413 13.992C48.7582 13.9973 48.6 13.9333 48.4667 13.8Z" fill="#5CBAB3"/>
<path d="M102.467 9.79997C102.344 9.67775 102.283 9.52219 102.283 9.3333C102.283 9.14442 102.344 8.98886 102.467 8.86664L105.533 5.79997C105.6 5.7333 105.672 5.68619 105.75 5.65864C105.828 5.63064 105.911 5.61664 106 5.61664C106.089 5.61664 106.172 5.63064 106.25 5.65864C106.328 5.68619 106.4 5.7333 106.467 5.79997L109.533 8.86664C109.656 8.98886 109.719 9.14153 109.725 9.32464C109.73 9.50819 109.667 9.66664 109.533 9.79997C109.411 9.92219 109.256 9.9833 109.067 9.9833C108.878 9.9833 108.722 9.92219 108.6 9.79997L106 7.21664L103.4 9.79997C103.278 9.92219 103.125 9.98619 102.941 9.99197C102.758 9.9973 102.6 9.9333 102.467 9.79997ZM102.467 13.8C102.344 13.6777 102.283 13.5222 102.283 13.3333C102.283 13.1444 102.344 12.9889 102.467 12.8666L105.533 9.79997C105.6 9.7333 105.672 9.68597 105.75 9.65797C105.828 9.63042 105.911 9.61664 106 9.61664C106.089 9.61664 106.172 9.63042 106.25 9.65797C106.328 9.68597 106.4 9.7333 106.467 9.79997L109.533 12.8666C109.656 12.9889 109.719 13.1415 109.725 13.3246C109.73 13.5082 109.667 13.6666 109.533 13.8C109.411 13.9222 109.256 13.9833 109.067 13.9833C108.878 13.9833 108.722 13.9222 108.6 13.8L106 11.2166L103.4 13.8C103.278 13.9222 103.125 13.9862 102.941 13.992C102.758 13.9973 102.6 13.9333 102.467 13.8Z" fill="#5CBAB3"/>
<path d="M165 10.3833C164.911 10.3833 164.828 10.3693 164.75 10.3413C164.672 10.3138 164.6 10.2667 164.533 10.2L161.467 7.13333C161.344 7.01111 161.281 6.85822 161.275 6.67466C161.27 6.49155 161.333 6.33333 161.467 6.2C161.589 6.07778 161.744 6.01666 161.933 6.01666C162.122 6.01666 162.278 6.07778 162.4 6.2L165 8.78333L167.6 6.2C167.722 6.07778 167.875 6.01378 168.058 6.008C168.242 6.00266 168.4 6.06666 168.533 6.2C168.656 6.32222 168.717 6.47778 168.717 6.66666C168.717 6.85555 168.656 7.01111 168.533 7.13333L165.467 10.2C165.4 10.2667 165.328 10.3138 165.25 10.3413C165.172 10.3693 165.089 10.3833 165 10.3833ZM165 14.3833C164.911 14.3833 164.828 14.3693 164.75 14.3413C164.672 14.3138 164.6 14.2667 164.533 14.2L161.467 11.1333C161.344 11.0111 161.281 10.8582 161.275 10.6747C161.27 10.4916 161.333 10.3333 161.467 10.2C161.589 10.0778 161.744 10.0167 161.933 10.0167C162.122 10.0167 162.278 10.0778 162.4 10.2L165 12.7833L167.6 10.2C167.722 10.0778 167.875 10.0138 168.058 10.008C168.242 10.0027 168.4 10.0667 168.533 10.2C168.656 10.3222 168.717 10.4778 168.717 10.6667C168.717 10.8556 168.656 11.0111 168.533 11.1333L165.467 14.2C165.4 14.2667 165.328 14.3138 165.25 14.3413C165.172 14.3693 165.089 14.3833 165 14.3833Z" fill="#5F328C"/>
</svg>
