<svg width="132" height="10" viewBox="0 0 132 10" fill="none" xmlns="http://www.w3.org/2000/svg">
<g clip-path="url(#clip0_4_27)">
<path d="M128.25 0H3.75C1.67893 0 0 1.01753 0 2.27273V7.72727C0 8.98247 1.67893 10 3.75 10H128.25C130.321 10 132 8.98247 132 7.72727V2.27273C132 1.01753 130.321 0 128.25 0Z" fill="white" fill-opacity="0.9"/>
<path d="M21.5018 6.98062H20.6047L20.6101 6.60287H21.5018C21.7863 6.60287 22.031 6.51888 22.2358 6.35104C22.4424 6.18067 22.6019 5.94562 22.7142 5.64582C22.8266 5.34601 22.8828 4.99823 22.8828 4.60247V4.11318C22.8828 3.81097 22.8501 3.53753 22.7849 3.29289C22.7214 3.04824 22.63 2.83956 22.5103 2.66687C22.3907 2.49178 22.2475 2.35746 22.0808 2.26392C21.9159 2.17037 21.7311 2.1236 21.5263 2.1236H20.5884V1.74224H21.5263C21.7727 1.74224 21.9984 1.7986 22.2031 1.91134C22.4097 2.02167 22.5883 2.18237 22.7387 2.39344C22.8909 2.60211 23.0078 2.85276 23.0894 3.14538C23.1727 3.438 23.2144 3.7642 23.2144 4.12397V4.60247C23.2144 4.96229 23.1727 5.28846 23.0894 5.58106C23.0078 5.87366 22.8909 6.12434 22.7387 6.33303C22.5865 6.54172 22.4061 6.70243 22.1977 6.81516C21.9893 6.92544 21.7573 6.98062 21.5018 6.98062ZM20.7542 1.74224V6.98062H20.4199V1.74224H20.7542ZM26.9903 4.0808V4.64209C26.9903 5.00903 26.9541 5.34126 26.8816 5.63861C26.8109 5.93367 26.7076 6.18673 26.5717 6.39779C26.4376 6.60885 26.2763 6.77079 26.0878 6.88344C25.8993 6.99618 25.6873 7.05258 25.4517 7.05258C25.2215 7.05258 25.0113 6.99618 24.821 6.88344C24.6325 6.77079 24.4703 6.60885 24.3344 6.39779C24.1985 6.18673 24.0934 5.93367 24.0191 5.63861C23.9448 5.34126 23.9076 5.00903 23.9076 4.64209V4.0808C23.9076 3.71383 23.9438 3.38283 24.0163 3.08781C24.0906 2.7904 24.1957 2.53615 24.3317 2.32508C24.4676 2.11401 24.6298 1.95211 24.8183 1.83937C25.0068 1.72665 25.2161 1.67028 25.4462 1.67028C25.6819 1.67028 25.8939 1.72665 26.0823 1.83937C26.2708 1.95211 26.433 2.11401 26.569 2.32508C26.7049 2.53615 26.8091 2.7904 26.8816 3.08781C26.9541 3.38283 26.9903 3.71383 26.9903 4.0808ZM26.6587 4.64209V4.07361C26.6587 3.7642 26.6315 3.48597 26.5771 3.23892C26.5246 2.99187 26.4457 2.7808 26.3406 2.60571C26.2373 2.43061 26.1105 2.2963 25.96 2.20275C25.8096 2.10921 25.6384 2.06245 25.4462 2.06245C25.2596 2.06245 25.092 2.10921 24.9433 2.20275C24.7947 2.2963 24.6679 2.43061 24.5628 2.60571C24.4594 2.7808 24.3797 2.99187 24.3235 3.23892C24.2692 3.48597 24.2419 3.7642 24.2419 4.07361V4.64209C24.2419 4.95385 24.2692 5.2345 24.3235 5.48396C24.3797 5.73096 24.4604 5.94325 24.5655 6.12074C24.6706 6.29586 24.7974 6.43013 24.946 6.52371C25.0965 6.61728 25.265 6.66403 25.4517 6.66403C25.6456 6.66403 25.8168 6.61728 25.9655 6.52371C26.1141 6.43013 26.24 6.29586 26.3433 6.12074C26.4466 5.94325 26.5246 5.73096 26.5771 5.48396C26.6315 5.2345 26.6587 4.95385 26.6587 4.64209ZM30.1247 6.60287V6.98062H28.0722V6.60287H30.1247ZM28.1701 1.74224V6.98062H27.8357V1.74224H28.1701ZM32.6719 4.62048L31.9976 4.4082L32.2288 1.74224H34.4959V2.63089H32.9247L32.8295 3.73541C32.8785 3.69704 32.9555 3.65506 33.0606 3.60949C33.1657 3.56152 33.2835 3.53753 33.414 3.53753C33.6079 3.53753 33.7801 3.57711 33.9305 3.65626C34.0809 3.73541 34.2078 3.85054 34.3111 4.00165C34.4162 4.15036 34.495 4.33385 34.5476 4.55212C34.6019 4.77038 34.6291 5.01861 34.6291 5.29689C34.6291 5.52711 34.6019 5.74774 34.5476 5.95889C34.4932 6.16749 34.4099 6.35464 34.2975 6.5201C34.1869 6.68319 34.0465 6.81271 33.8761 6.90866C33.7058 7.00461 33.5055 7.05258 33.2754 7.05258C33.1013 7.05258 32.9328 7.01779 32.7697 6.9482C32.6066 6.87869 32.4598 6.77791 32.3293 6.64602C32.2007 6.51167 32.0982 6.34859 32.0221 6.15677C31.9478 5.96486 31.9098 5.74897 31.9079 5.50909H32.7561C32.7652 5.64827 32.7914 5.76813 32.835 5.86891C32.8785 5.96724 32.9374 6.04403 33.0116 6.09913C33.0859 6.15194 33.172 6.1783 33.2699 6.1783C33.3641 6.1783 33.4439 6.15431 33.5091 6.10633C33.5744 6.05598 33.626 5.98762 33.6641 5.90125C33.7039 5.81496 33.7329 5.71418 33.7511 5.59907C33.7692 5.48396 33.7783 5.36042 33.7783 5.22853C33.7783 5.0918 33.7665 4.96949 33.7429 4.8615C33.7193 4.75123 33.6831 4.65765 33.6342 4.58086C33.5853 4.50174 33.5227 4.44178 33.4466 4.401C33.3723 4.35783 33.2826 4.33624 33.1775 4.33624C33.0397 4.33624 32.9319 4.36623 32.854 4.42619C32.776 4.48615 32.7153 4.55089 32.6719 4.62048ZM35.9639 6.0848L35.9584 6.81868C35.9584 7.09696 35.9068 7.374 35.8035 7.64982C35.7002 7.92802 35.5706 8.15586 35.4148 8.33335L34.9798 8.04918C35.0215 7.93882 35.0641 7.82732 35.1076 7.71458C35.1529 7.60422 35.19 7.48191 35.219 7.34756C35.2498 7.21329 35.2652 7.05619 35.2652 6.87632V6.0848H35.9639ZM39.2967 6.10633V6.98062H36.5619V6.23945L37.8396 4.44778C37.9592 4.26549 38.0544 4.10478 38.125 3.96567C38.1975 3.82656 38.2501 3.70063 38.2827 3.58791C38.3153 3.47277 38.3316 3.36724 38.3316 3.2713C38.3316 3.1154 38.3126 2.98348 38.2745 2.87554C38.2383 2.76761 38.1848 2.68486 38.1141 2.6273C38.0435 2.56973 37.9574 2.54095 37.8559 2.54095C37.7472 2.54095 37.6538 2.57813 37.5759 2.65248C37.4979 2.72683 37.4382 2.82997 37.3965 2.96189C37.3548 3.09141 37.334 3.23892 37.334 3.40442H36.4804C36.4804 3.08542 36.5384 2.7952 36.6544 2.53375C36.7704 2.26991 36.9325 2.06005 37.141 1.90414C37.3494 1.74584 37.5931 1.66669 37.8722 1.66669C38.1585 1.66669 38.3987 1.72665 38.5926 1.84657C38.7865 1.9665 38.9333 2.13799 39.033 2.36106C39.1326 2.58412 39.1825 2.85276 39.1825 3.16697C39.1825 3.34445 39.1607 3.51595 39.1172 3.68144C39.0755 3.84694 39.0149 4.01125 38.9351 4.17435C38.8554 4.33744 38.7593 4.50414 38.647 4.67443C38.5346 4.84235 38.4078 5.01984 38.2664 5.20691L37.6683 6.10633H39.2967ZM42.4827 5.54151C42.4827 5.87251 42.4238 6.15071 42.306 6.37618C42.1882 6.60165 42.0269 6.77079 41.8221 6.88344C41.6191 6.99618 41.3872 7.05258 41.1262 7.05258C40.867 7.05258 40.6342 6.99618 40.4275 6.88344C40.2227 6.77079 40.0605 6.60165 39.941 6.37618C39.8213 6.15071 39.7615 5.87251 39.7615 5.54151C39.7615 5.31605 39.795 5.11334 39.8621 4.93347C39.931 4.7536 40.0261 4.60009 40.1476 4.47296C40.2708 4.34584 40.4149 4.2487 40.5798 4.18154C40.7465 4.11438 40.9268 4.0808 41.1207 4.0808C41.3817 4.0808 41.6146 4.14076 41.8194 4.26069C42.026 4.37822 42.1882 4.54614 42.306 4.76441C42.4238 4.98267 42.4827 5.24171 42.4827 5.54151ZM41.6291 5.45874C41.6291 5.30524 41.6073 5.17572 41.5638 5.07019C41.5222 4.96229 41.4633 4.87952 41.3872 4.82196C41.311 4.76195 41.2223 4.73199 41.1207 4.73199C41.0192 4.73199 40.9305 4.76195 40.8543 4.82196C40.7782 4.87952 40.7184 4.96229 40.6749 5.07019C40.6332 5.17572 40.6124 5.30524 40.6124 5.45874C40.6124 5.6075 40.6342 5.73702 40.6776 5.8473C40.7211 5.95528 40.781 6.03797 40.857 6.09553C40.9332 6.15071 41.0229 6.1783 41.1262 6.1783C41.2295 6.1783 41.3183 6.15071 41.3926 6.09553C41.4669 6.03797 41.5249 5.95528 41.5666 5.8473C41.6083 5.73702 41.6291 5.6075 41.6291 5.45874ZM42.3984 3.13459C42.3984 3.40562 42.344 3.64427 42.2353 3.85054C42.1284 4.05442 41.9789 4.21392 41.7868 4.32905C41.5947 4.44178 41.3744 4.49814 41.1262 4.49814C40.8779 4.49814 40.6568 4.44178 40.4629 4.32905C40.2708 4.21392 40.1194 4.05442 40.0089 3.85054C39.9001 3.64427 39.8458 3.40562 39.8458 3.13459C39.8458 2.81798 39.9001 2.55054 40.0089 2.33228C40.1194 2.11401 40.2708 1.94852 40.4629 1.83578C40.655 1.72305 40.8743 1.66669 41.1207 1.66669C41.3708 1.66669 41.5919 1.72305 41.7841 1.83578C41.9761 1.94852 42.1266 2.11401 42.2353 2.33228C42.344 2.55054 42.3984 2.81798 42.3984 3.13459ZM41.5502 3.19215C41.5502 3.06023 41.533 2.9463 41.4986 2.85036C41.466 2.75202 41.418 2.67647 41.3545 2.62369C41.2911 2.56853 41.2132 2.54095 41.1207 2.54095C41.0319 2.54095 40.9558 2.56734 40.8924 2.6201C40.829 2.67047 40.78 2.74482 40.7456 2.84316C40.713 2.93911 40.6966 3.05543 40.6966 3.19215C40.6966 3.32646 40.713 3.444 40.7456 3.54473C40.78 3.64307 40.829 3.72102 40.8924 3.77859C40.9576 3.83375 41.0356 3.86134 41.1262 3.86134C41.2186 3.86134 41.2956 3.83375 41.3572 3.77859C41.4207 3.72102 41.4687 3.64307 41.5013 3.54473C41.534 3.444 41.5502 3.32646 41.5502 3.19215ZM55.398 6.60287V6.98062H53.1716V6.60287H55.398ZM53.2721 1.74224V6.98062H52.9378V1.74224H53.2721ZM55.1207 4.09159V4.46937H53.1716V4.09159H55.1207ZM55.3844 1.74224V2.1236H53.1716V1.74224H55.3844ZM58.497 1.74224H58.8314V5.28968C58.8314 5.68299 58.7688 6.01038 58.6438 6.27187C58.5187 6.53328 58.3502 6.72879 58.1382 6.85831C57.9279 6.98783 57.695 7.05258 57.4395 7.05258C57.1768 7.05258 56.9402 6.98783 56.73 6.85831C56.5197 6.72879 56.353 6.53328 56.2298 6.27187C56.1084 6.01038 56.0477 5.68299 56.0477 5.28968V1.74224H56.3793V5.28968C56.3793 5.59424 56.4246 5.84975 56.5152 6.05598C56.6058 6.2623 56.7309 6.41695 56.8904 6.5201C57.0499 6.62326 57.2329 6.67484 57.4395 6.67484C57.6443 6.67484 57.8265 6.62326 57.9859 6.5201C58.1454 6.41695 58.2704 6.2623 58.3611 6.05598C58.4517 5.84975 58.497 5.59424 58.497 5.28968V1.74224ZM59.7638 1.74224H61.0496C61.3233 1.74224 61.5607 1.801 61.7618 1.91853C61.963 2.03606 62.118 2.20995 62.2267 2.44021C62.3372 2.66807 62.3925 2.9487 62.3925 3.28209C62.3925 3.52914 62.3526 3.75341 62.2729 3.95488C62.195 4.15635 62.0871 4.32545 61.9494 4.46217C61.8116 4.59649 61.6522 4.68884 61.471 4.73919L61.3541 4.79675H59.9813L59.9758 4.41899H61.1257C61.3323 4.41899 61.5045 4.36623 61.6422 4.26069C61.78 4.15516 61.8833 4.01604 61.9521 3.84335C62.0228 3.66825 62.0581 3.48117 62.0581 3.28209C62.0581 3.04464 62.0192 2.83956 61.9412 2.66687C61.8651 2.49178 61.7519 2.35746 61.6014 2.26392C61.451 2.17037 61.2671 2.1236 61.0496 2.1236H60.0981V6.98062H59.7638V1.74224ZM62.2077 6.98062L61.1828 4.63849L61.5416 4.63489L62.5638 6.93387V6.98062H62.2077ZM65.2115 4.62048L64.5374 4.4082L64.7684 1.74224H67.0356V2.63089H65.4643L65.3692 3.73541C65.4181 3.69704 65.4951 3.65506 65.6002 3.60949C65.7054 3.56152 65.8232 3.53753 65.9536 3.53753C66.1476 3.53753 66.3197 3.57711 66.4702 3.65626C66.6206 3.73541 66.7474 3.85054 66.8507 4.00165C66.9559 4.15036 67.0347 4.33385 67.0873 4.55212C67.1416 4.77038 67.1688 5.01861 67.1688 5.29689C67.1688 5.52711 67.1416 5.74774 67.0873 5.95889C67.0329 6.16749 66.9495 6.35464 66.8372 6.5201C66.7266 6.68319 66.5861 6.81271 66.4158 6.90866C66.2454 7.00461 66.0452 7.05258 65.815 7.05258C65.641 7.05258 65.4725 7.01779 65.3094 6.9482C65.1463 6.87869 64.9995 6.77791 64.869 6.64602C64.7403 6.51167 64.6379 6.34859 64.5618 6.15677C64.4875 5.96486 64.4495 5.74897 64.4477 5.50909H65.2958C65.3048 5.64827 65.3311 5.76813 65.3746 5.86891C65.4181 5.96724 65.477 6.04403 65.5513 6.09913C65.6256 6.15194 65.7117 6.1783 65.8096 6.1783C65.9038 6.1783 65.9836 6.15431 66.0488 6.10633C66.114 6.05598 66.1657 5.98762 66.2037 5.90125C66.2436 5.81496 66.2726 5.71418 66.2908 5.59907C66.3089 5.48396 66.3179 5.36042 66.3179 5.22853C66.3179 5.0918 66.3062 4.96949 66.2826 4.8615C66.259 4.75123 66.2228 4.65765 66.1738 4.58086C66.1249 4.50174 66.0624 4.44178 65.9863 4.401C65.912 4.35783 65.8222 4.33624 65.7171 4.33624C65.5794 4.33624 65.4716 4.36623 65.3937 4.42619C65.3157 4.48615 65.255 4.55089 65.2115 4.62048ZM68.5035 6.0848L68.4981 6.81868C68.4981 7.09696 68.4464 7.374 68.3431 7.64982C68.2398 7.92802 68.1103 8.15586 67.9544 8.33335L67.5195 8.04918C67.5612 7.93882 67.6037 7.82732 67.6472 7.71458C67.6926 7.60422 67.7297 7.48191 67.7587 7.34756C67.7895 7.21329 67.8049 7.05619 67.8049 6.87632V6.0848H68.5035ZM71.8227 1.74224V2.34666L70.3168 6.98062H69.4197L70.9256 2.6165H68.9956V1.74224H71.8227ZM75.0495 6.10633V6.98062H72.3148V6.23945L73.5925 4.44778C73.712 4.26549 73.8072 4.10478 73.8779 3.96567C73.9504 3.82656 74.0029 3.70063 74.0356 3.58791C74.0682 3.47277 74.0845 3.36724 74.0845 3.2713C74.0845 3.1154 74.0654 2.98348 74.0274 2.87554C73.9912 2.76761 73.9377 2.68486 73.867 2.6273C73.7964 2.56973 73.7102 2.54095 73.6087 2.54095C73.5001 2.54095 73.4067 2.57813 73.3288 2.65248C73.2508 2.72683 73.191 2.82997 73.1494 2.96189C73.1077 3.09141 73.0868 3.23892 73.0868 3.40442H72.2332C72.2332 3.08542 72.2913 2.7952 72.4072 2.53375C72.5232 2.26991 72.6854 2.06005 72.8938 1.90414C73.1022 1.74584 73.346 1.66669 73.6251 1.66669C73.9114 1.66669 74.1516 1.72665 74.3455 1.84657C74.5394 1.9665 74.6861 2.13799 74.7859 2.36106C74.8855 2.58412 74.9354 2.85276 74.9354 3.16697C74.9354 3.34445 74.9136 3.51595 74.8701 3.68144C74.8284 3.84694 74.7677 4.01125 74.688 4.17435C74.6083 4.33744 74.5122 4.50414 74.3998 4.67443C74.2875 4.84235 74.1606 5.01984 74.0192 5.20691L73.4212 6.10633H75.0495ZM85.8855 1.74224V6.98062H85.5508V1.74224H85.8855ZM88.3234 4.46217H87.2093L87.2037 4.088H88.1632C88.3593 4.088 88.5257 4.05082 88.6636 3.97647C88.8009 3.90211 88.9055 3.79178 88.976 3.64547C89.0484 3.49676 89.0849 3.31447 89.0849 3.0986C89.0849 2.87794 89.0496 2.69565 88.9791 2.55174C88.908 2.40543 88.8022 2.2975 88.6605 2.22794C88.5195 2.15838 88.3419 2.1236 88.1279 2.1236H87.2959V6.98062H86.9619V1.74224H88.1279C88.3289 1.74224 88.5096 1.76862 88.6692 1.82139C88.8282 1.87416 88.9642 1.95691 89.0768 2.06963C89.1888 2.18237 89.2742 2.32508 89.3323 2.49777C89.3917 2.66807 89.422 2.87195 89.422 3.10939C89.422 3.32527 89.3855 3.52075 89.3131 3.69584C89.2408 3.86853 89.1381 4.01004 89.0057 4.12038C88.8758 4.22831 88.7187 4.29547 88.5356 4.32185L88.3234 4.46217ZM88.2993 6.98062H87.1029L87.2742 6.60287H88.2993C88.4947 6.60287 88.6618 6.55965 88.7991 6.47336C88.9389 6.38461 89.0459 6.25869 89.1201 6.09553C89.1944 5.93244 89.2315 5.73817 89.2315 5.5127C89.2315 5.31367 89.1987 5.13495 89.1337 4.97661C89.0688 4.81836 88.9686 4.69359 88.835 4.60247C88.7007 4.50894 88.53 4.46217 88.3234 4.46217H87.6306L87.6361 4.088H88.6172L88.6772 4.22111C88.8548 4.2451 89.0094 4.31826 89.1418 4.44058C89.276 4.56047 89.3793 4.71283 89.4517 4.89753C89.5259 5.08223 89.563 5.28485 89.563 5.50549C89.563 5.82216 89.5098 6.09078 89.4028 6.31142C89.2977 6.52968 89.1498 6.69637 88.9599 6.81156C88.7712 6.92429 88.551 6.98062 88.2993 6.98062ZM93.2981 4.0808V4.64209C93.2981 5.00903 93.2622 5.34126 93.1899 5.63861C93.1187 5.93367 93.0154 6.18673 92.88 6.39779C92.7457 6.60885 92.5843 6.77079 92.3956 6.88344C92.2075 6.99618 91.9954 7.05258 91.7597 7.05258C91.5296 7.05258 91.3192 6.99618 91.1293 6.88344C90.9407 6.77079 90.7786 6.60885 90.6425 6.39779C90.5064 6.18673 90.4012 5.93367 90.327 5.63861C90.2528 5.34126 90.2157 5.00903 90.2157 4.64209V4.0808C90.2157 3.71383 90.2522 3.38283 90.3245 3.08781C90.3988 2.7904 90.5039 2.53615 90.64 2.32508C90.7755 2.11401 90.9382 1.95211 91.1262 1.83937C91.3149 1.72665 91.524 1.67028 91.7541 1.67028C91.9898 1.67028 92.202 1.72665 92.3906 1.83937C92.5787 1.95211 92.7414 2.11401 92.8769 2.32508C93.013 2.53615 93.1169 2.7904 93.1899 3.08781C93.2622 3.38283 93.2981 3.71383 93.2981 4.0808ZM92.9666 4.64209V4.07361C92.9666 3.7642 92.9393 3.48597 92.8849 3.23892C92.8323 2.99187 92.7538 2.7808 92.6486 2.60571C92.5453 2.43061 92.4185 2.2963 92.2682 2.20275C92.1178 2.10921 91.9465 2.06245 91.7541 2.06245C91.5679 2.06245 91.4003 2.10921 91.2512 2.20275C91.1027 2.2963 90.9759 2.43061 90.8708 2.60571C90.7675 2.7808 90.6877 2.99187 90.6314 3.23892C90.5775 3.48597 90.5503 3.7642 90.5503 4.07361V4.64209C90.5503 4.95385 90.5775 5.2345 90.6314 5.48396C90.6877 5.73096 90.7687 5.94325 90.8738 6.12074C90.9784 6.29586 91.1058 6.43013 91.2543 6.52371C91.4046 6.61728 91.5729 6.66403 91.7597 6.66403C91.9539 6.66403 92.1246 6.61728 92.2737 6.52371C92.4222 6.43013 92.5484 6.29586 92.6517 6.12074C92.755 5.94325 92.8323 5.73096 92.8849 5.48396C92.9393 5.2345 92.9666 4.95385 92.9666 4.64209ZM95.3209 6.32943L96.5686 1.74224H96.933L95.4595 6.98062H95.1904L95.3209 6.32943ZM94.0324 1.74224L95.2745 6.32943L95.4106 6.98062H95.1391L93.668 1.74224H94.0324ZM100.35 4.28947V5.16737H98.7677V4.28947H100.35ZM102.979 1.73864V6.98062H102.128V3.01945L101.209 3.39003V2.51936L102.894 1.73864H102.979ZM105.061 6.0848L105.056 6.81868C105.056 7.09696 105.004 7.374 104.9 7.64982C104.797 7.92802 104.668 8.15586 104.512 8.33335L104.077 8.04918C104.119 7.93882 104.161 7.82732 104.205 7.71458C104.25 7.60422 104.287 7.48191 104.316 7.34756C104.347 7.21329 104.362 7.05619 104.362 6.87632V6.0848H105.061ZM107.627 1.73864V6.98062H106.777V3.01945L105.857 3.39003V2.51936L107.543 1.73864H107.627ZM111.58 5.54151C111.58 5.87251 111.521 6.15071 111.403 6.37618C111.286 6.60165 111.124 6.77079 110.919 6.88344C110.717 6.99618 110.485 7.05258 110.224 7.05258C109.964 7.05258 109.731 6.99618 109.524 6.88344C109.32 6.77079 109.158 6.60165 109.038 6.37618C108.918 6.15071 108.859 5.87251 108.859 5.54151C108.859 5.31605 108.892 5.11334 108.959 4.93347C109.028 4.7536 109.123 4.60009 109.245 4.47296C109.368 4.34584 109.512 4.2487 109.677 4.18154C109.844 4.11438 110.024 4.0808 110.218 4.0808C110.479 4.0808 110.712 4.14076 110.916 4.26069C111.123 4.37822 111.286 4.54614 111.403 4.76441C111.521 4.98267 111.58 5.24171 111.58 5.54151ZM110.726 5.45874C110.726 5.30524 110.705 5.17572 110.661 5.07019C110.619 4.96229 110.561 4.87952 110.485 4.82196C110.408 4.76195 110.319 4.73199 110.218 4.73199C110.116 4.73199 110.027 4.76195 109.951 4.82196C109.875 4.87952 109.816 4.96229 109.772 5.07019C109.73 5.17572 109.709 5.30524 109.709 5.45874C109.709 5.6075 109.731 5.73702 109.775 5.8473C109.818 5.95528 109.878 6.03797 109.954 6.09553C110.03 6.15071 110.12 6.1783 110.224 6.1783C110.327 6.1783 110.415 6.15071 110.489 6.09553C110.564 6.03797 110.622 5.95528 110.664 5.8473C110.705 5.73702 110.726 5.6075 110.726 5.45874ZM111.495 3.13459C111.495 3.40562 111.442 3.64427 111.333 3.85054C111.226 4.05442 111.076 4.21392 110.884 4.32905C110.692 4.44178 110.472 4.49814 110.224 4.49814C109.975 4.49814 109.754 4.44178 109.56 4.32905C109.368 4.21392 109.216 4.05442 109.106 3.85054C108.997 3.64427 108.943 3.40562 108.943 3.13459C108.943 2.81798 108.997 2.55054 109.106 2.33228C109.216 2.11401 109.368 1.94852 109.56 1.83578C109.752 1.72305 109.972 1.66669 110.218 1.66669C110.468 1.66669 110.689 1.72305 110.881 1.83578C111.073 1.94852 111.224 2.11401 111.333 2.33228C111.442 2.55054 111.495 2.81798 111.495 3.13459ZM110.647 3.19215C110.647 3.06023 110.63 2.9463 110.596 2.85036C110.563 2.75202 110.515 2.67647 110.452 2.62369C110.388 2.56853 110.31 2.54095 110.218 2.54095C110.129 2.54095 110.053 2.56734 109.99 2.6201C109.926 2.67047 109.877 2.74482 109.843 2.84316C109.81 2.93911 109.794 3.05543 109.794 3.19215C109.794 3.32646 109.81 3.444 109.843 3.54473C109.877 3.64307 109.926 3.72102 109.99 3.77859C110.055 3.83375 110.133 3.86134 110.224 3.86134C110.316 3.86134 110.393 3.83375 110.454 3.77859C110.518 3.72102 110.566 3.64307 110.598 3.54473C110.631 3.444 110.647 3.32646 110.647 3.19215Z" fill="black"/>
<path d="M40.8398 8.33331H90.5635" stroke="#5F328C" stroke-width="0.5"/>
<path d="M45.2876 4.58022C45.2394 4.4951 45.2155 4.38675 45.2155 4.2552C45.2155 4.12365 45.2394 4.01531 45.2876 3.93019L46.4893 1.79437C46.5156 1.74794 46.5438 1.71513 46.5744 1.69594C46.605 1.67644 46.6375 1.66669 46.6724 1.66669C46.7073 1.66669 46.7398 1.67644 46.7704 1.69594C46.801 1.71513 46.8292 1.74794 46.8554 1.79437L48.0572 3.93019C48.1054 4.01531 48.1301 4.12164 48.1325 4.24917C48.1344 4.377 48.1097 4.48736 48.0572 4.58022C48.0094 4.66534 47.9486 4.7079 47.8746 4.7079C47.8005 4.7079 47.7393 4.66534 47.6915 4.58022L46.6724 2.78103L45.6533 4.58022C45.6055 4.66534 45.5455 4.70991 45.4734 4.71394C45.4016 4.71765 45.3397 4.67308 45.2876 4.58022ZM45.2876 7.36609C45.2394 7.28091 45.2155 7.17261 45.2155 7.04105C45.2155 6.90949 45.2394 6.80119 45.2876 6.71601L46.4893 4.58022C46.5156 4.53378 46.5438 4.50082 46.5744 4.48132C46.605 4.46213 46.6375 4.45254 46.6724 4.45254C46.7073 4.45254 46.7398 4.46213 46.7704 4.48132C46.801 4.50082 46.8292 4.53378 46.8554 4.58022L48.0572 6.71601C48.1054 6.80119 48.1301 6.90747 48.1325 7.03499C48.1344 7.16286 48.1097 7.27318 48.0572 7.36609C48.0094 7.4512 47.9486 7.49375 47.8746 7.49375C47.8005 7.49375 47.7393 7.4512 47.6915 7.36609L46.6724 5.56685L45.6533 7.36609C45.6055 7.4512 45.5455 7.49577 45.4734 7.49981C45.4016 7.5035 45.3397 7.45893 45.2876 7.36609Z" fill="#5CBAB3"/>
<path d="M78.8346 4.58022C78.7864 4.4951 78.7625 4.38675 78.7625 4.2552C78.7625 4.12365 78.7864 4.01531 78.8346 3.93019L80.0363 1.79437C80.0626 1.74794 80.0908 1.71513 80.1214 1.69594C80.152 1.67644 80.1845 1.66669 80.2194 1.66669C80.2543 1.66669 80.2868 1.67644 80.3174 1.69594C80.348 1.71513 80.3762 1.74794 80.4024 1.79437L81.6042 3.93019C81.6524 4.01531 81.6771 4.12164 81.6795 4.24917C81.6814 4.377 81.6567 4.48736 81.6042 4.58022C81.5564 4.66534 81.4956 4.7079 81.4216 4.7079C81.3475 4.7079 81.2863 4.66534 81.2385 4.58022L80.2194 2.78103L79.2003 4.58022C79.1525 4.66534 79.0925 4.70991 79.0204 4.71394C78.9486 4.71765 78.8867 4.67308 78.8346 4.58022ZM78.8346 7.36609C78.7864 7.28091 78.7625 7.17261 78.7625 7.04105C78.7625 6.90949 78.7864 6.80119 78.8346 6.71601L80.0363 4.58022C80.0626 4.53378 80.0908 4.50082 80.1214 4.48132C80.152 4.46213 80.1845 4.45254 80.2194 4.45254C80.2543 4.45254 80.2868 4.46213 80.3174 4.48132C80.348 4.50082 80.3762 4.53378 80.4024 4.58022L81.6042 6.71601C81.6524 6.80119 81.6771 6.90747 81.6795 7.03499C81.6814 7.16286 81.6567 7.27318 81.6042 7.36609C81.5564 7.4512 81.4956 7.49375 81.4216 7.49375C81.3475 7.49375 81.2863 7.4512 81.2385 7.36609L80.2194 5.56685L79.2003 7.36609C79.1525 7.4512 79.0925 7.49577 79.0204 7.49981C78.9486 7.5035 78.8867 7.45893 78.8346 7.36609Z" fill="#5CBAB3"/>
<path d="M116.687 4.71415C116.652 4.71415 116.619 4.7044 116.589 4.6849C116.558 4.66575 116.53 4.63295 116.504 4.58649L115.302 2.45066C115.254 2.36553 115.229 2.25905 115.227 2.13121C115.225 2.00368 115.249 1.89348 115.302 1.80062C115.35 1.7155 115.41 1.67293 115.485 1.67293C115.559 1.67293 115.62 1.7155 115.668 1.80062L116.687 3.59983L117.706 1.80062C117.754 1.7155 117.814 1.67093 117.885 1.6669C117.957 1.66318 118.019 1.70776 118.072 1.80062C118.12 1.88575 118.144 1.99409 118.144 2.12564C118.144 2.25719 118.12 2.36553 118.072 2.45066L116.87 4.58649C116.843 4.63295 116.815 4.66575 116.785 4.6849C116.754 4.7044 116.722 4.71415 116.687 4.71415ZM116.687 7.50002C116.652 7.50002 116.619 7.49027 116.589 7.47077C116.558 7.45162 116.53 7.41881 116.504 7.37236L115.302 5.2365C115.254 5.1514 115.229 5.04491 115.227 4.9171C115.225 4.78958 115.249 4.67933 115.302 4.58649C115.35 4.50138 115.41 4.45883 115.485 4.45883C115.559 4.45883 115.62 4.50138 115.668 4.58649L116.687 6.38567L117.706 4.58649C117.754 4.50138 117.814 4.45681 117.885 4.45277C117.957 4.44908 118.019 4.49365 118.072 4.58649C118.12 4.6716 118.144 4.77997 118.144 4.91153C118.144 5.04309 118.12 5.1514 118.072 5.2365L116.87 7.37236C116.843 7.41881 116.815 7.45162 116.785 7.47077C116.754 7.49027 116.722 7.50002 116.687 7.50002Z" fill="#5F328C"/>
</g>
<defs>
<clipPath id="clip0_4_27">
<rect width="132" height="10" fill="white"/>
</clipPath>
</defs>
</svg>
