<svg width="420" height="15" viewBox="0 0 420 15" fill="none" xmlns="http://www.w3.org/2000/svg">
<rect width="420" height="15" fill="white"/>
<path d="M146.543 9.2173H145.264L145.271 8.77534H146.543C146.949 8.77534 147.298 8.67706 147.59 8.4807C147.884 8.28136 148.112 8.00636 148.272 7.65558C148.432 7.30481 148.512 6.8979 148.512 6.43486V5.8624C148.512 5.50881 148.466 5.18889 148.373 4.90266C148.282 4.61642 148.152 4.37226 147.981 4.17022C147.811 3.96536 147.606 3.80821 147.369 3.69876C147.133 3.58931 146.87 3.53459 146.578 3.53459H145.24V3.08839H146.578C146.929 3.08839 147.251 3.15434 147.543 3.28624C147.838 3.41533 148.092 3.60335 148.307 3.8503C148.524 4.09445 148.691 4.3877 148.807 4.73007C148.926 5.07243 148.985 5.45409 148.985 5.87503V6.43486C148.985 6.85585 148.926 7.23747 148.807 7.57981C148.691 7.92216 148.524 8.21546 148.307 8.45962C148.09 8.70379 147.833 8.89182 147.535 9.02372C147.238 9.15274 146.907 9.2173 146.543 9.2173ZM145.477 3.08839V9.2173H145V3.08839H145.477ZM154.37 5.82452V6.48123C154.37 6.91055 154.318 7.29925 154.215 7.64715C154.114 7.99237 153.967 8.28845 153.773 8.53539C153.582 8.78233 153.352 8.9718 153.083 9.1036C152.814 9.2355 152.512 9.3015 152.176 9.3015C151.847 9.3015 151.548 9.2355 151.276 9.1036C151.008 8.9718 150.776 8.78233 150.582 8.53539C150.389 8.28845 150.239 7.99237 150.133 7.64715C150.027 7.29925 149.974 6.91055 149.974 6.48123V5.82452C149.974 5.39516 150.025 5.00789 150.129 4.66272C150.235 4.31474 150.385 4.01727 150.579 3.77032C150.772 3.52336 151.004 3.33394 151.272 3.20204C151.541 3.07015 151.84 3.0042 152.168 3.0042C152.504 3.0042 152.806 3.07015 153.075 3.20204C153.344 3.33394 153.575 3.52336 153.769 3.77032C153.963 4.01727 154.111 4.31474 154.215 4.66272C154.318 5.00789 154.37 5.39516 154.37 5.82452ZM153.897 6.48123V5.8161C153.897 5.45409 153.858 5.12856 153.781 4.83951C153.706 4.55047 153.593 4.30352 153.443 4.09865C153.296 3.89379 153.115 3.73664 152.901 3.6272C152.686 3.51775 152.442 3.46304 152.168 3.46304C151.902 3.46304 151.663 3.51775 151.451 3.6272C151.239 3.73664 151.058 3.89379 150.908 4.09865C150.761 4.30352 150.647 4.55047 150.567 4.83951C150.489 5.12856 150.451 5.45409 150.451 5.8161V6.48123C150.451 6.84599 150.489 7.17435 150.567 7.46621C150.647 7.7552 150.762 8.00358 150.912 8.21125C151.062 8.41614 151.243 8.57323 151.455 8.68271C151.669 8.7922 151.91 8.84689 152.176 8.84689C152.452 8.84689 152.696 8.7922 152.908 8.68271C153.12 8.57323 153.3 8.41614 153.447 8.21125C153.595 8.00358 153.706 7.7552 153.781 7.46621C153.858 7.17435 153.897 6.84599 153.897 6.48123ZM158.84 8.77534V9.2173H155.913V8.77534H158.84ZM156.052 3.08839V9.2173H155.575V3.08839H156.052ZM162.472 6.45594L161.511 6.20757L161.84 3.08839H165.073V4.12812H162.833L162.697 5.42041C162.767 5.37551 162.877 5.3264 163.026 5.27308C163.176 5.21696 163.344 5.18889 163.53 5.18889C163.807 5.18889 164.052 5.23519 164.267 5.3278C164.481 5.42041 164.662 5.55511 164.81 5.73191C164.96 5.9059 165.072 6.12058 165.147 6.37596C165.224 6.63133 165.263 6.92175 165.263 7.24734C165.263 7.51669 165.224 7.77484 165.147 8.02187C165.069 8.26594 164.951 8.48491 164.79 8.6785C164.633 8.86931 164.432 9.02084 164.189 9.13311C163.947 9.24537 163.661 9.3015 163.333 9.3015C163.085 9.3015 162.844 9.26079 162.612 9.17937C162.379 9.09805 162.17 8.98013 161.984 8.82582C161.8 8.66863 161.654 8.47782 161.546 8.25339C161.44 8.02887 161.385 7.77627 161.383 7.49562H162.592C162.605 7.65846 162.643 7.79869 162.705 7.9166C162.767 8.03164 162.851 8.12149 162.957 8.18596C163.063 8.24774 163.185 8.27858 163.325 8.27858C163.459 8.27858 163.573 8.25052 163.666 8.19439C163.759 8.13548 163.833 8.05549 163.887 7.95444C163.944 7.85348 163.985 7.73556 164.011 7.60089C164.037 7.46621 164.05 7.32167 164.05 7.16735C164.05 7.00739 164.033 6.86428 163.999 6.73794C163.966 6.60891 163.914 6.49943 163.844 6.40958C163.775 6.31702 163.685 6.24686 163.577 6.19915C163.471 6.14864 163.343 6.12338 163.193 6.12338C162.997 6.12338 162.843 6.15846 162.732 6.22862C162.621 6.29877 162.534 6.37452 162.472 6.45594ZM167.167 8.16919L167.159 9.02784C167.159 9.35342 167.085 9.67756 166.938 10.0003C166.791 10.3258 166.606 10.5923 166.384 10.8L165.763 10.4675C165.823 10.3384 165.884 10.2079 165.946 10.076C166.01 9.94692 166.063 9.80381 166.105 9.64662C166.148 9.48953 166.17 9.30571 166.17 9.09527V8.16919H167.167ZM171.92 8.19439V9.2173H168.02V8.35014L169.842 6.25387C170.012 6.04059 170.148 5.85257 170.249 5.68981C170.352 5.52705 170.427 5.37972 170.473 5.24783C170.52 5.11312 170.543 4.98965 170.543 4.8774C170.543 4.69499 170.516 4.54065 170.462 4.41436C170.41 4.28807 170.334 4.19126 170.233 4.12391C170.132 4.05656 170.01 4.02289 169.865 4.02289C169.71 4.02289 169.577 4.06638 169.466 4.15338C169.354 4.24037 169.269 4.36104 169.21 4.51539C169.15 4.66692 169.121 4.83951 169.121 5.03315H167.903C167.903 4.65991 167.986 4.32035 168.151 4.01447C168.317 3.70577 168.548 3.46023 168.845 3.27782C169.142 3.09261 169.49 3 169.888 3C170.296 3 170.639 3.07015 170.915 3.21046C171.192 3.35078 171.401 3.55143 171.543 3.81241C171.686 4.0734 171.757 4.3877 171.757 4.75533C171.757 4.96298 171.726 5.16364 171.664 5.35726C171.604 5.5509 171.518 5.74314 171.404 5.93396C171.29 6.12478 171.153 6.31982 170.993 6.51906C170.833 6.71552 170.652 6.92319 170.45 7.14206L169.597 8.19439H171.92ZM176.463 7.53355C176.463 7.92082 176.379 8.2463 176.211 8.5101C176.043 8.7739 175.813 8.9718 175.521 9.1036C175.231 9.2355 174.901 9.3015 174.528 9.3015C174.159 9.3015 173.827 9.2355 173.532 9.1036C173.24 8.9718 173.009 8.7739 172.838 8.5101C172.668 8.2463 172.582 7.92082 172.582 7.53355C172.582 7.26975 172.63 7.03258 172.726 6.82213C172.824 6.61169 172.96 6.43209 173.133 6.28334C173.309 6.13461 173.514 6.02096 173.749 5.94237C173.987 5.8638 174.244 5.82452 174.521 5.82452C174.893 5.82452 175.225 5.89467 175.517 6.03498C175.812 6.17249 176.043 6.36896 176.211 6.62433C176.379 6.8797 176.463 7.18277 176.463 7.53355ZM175.246 7.43671C175.246 7.25711 175.215 7.10557 175.153 6.9821C175.093 6.85585 175.009 6.75901 174.901 6.69167C174.792 6.62146 174.665 6.5864 174.521 6.5864C174.376 6.5864 174.249 6.62146 174.141 6.69167C174.032 6.75901 173.947 6.85585 173.885 6.9821C173.825 7.10557 173.796 7.25711 173.796 7.43671C173.796 7.61075 173.827 7.76229 173.889 7.89132C173.951 8.01766 174.036 8.1144 174.145 8.18174C174.253 8.2463 174.381 8.27858 174.528 8.27858C174.676 8.27858 174.802 8.2463 174.908 8.18174C175.014 8.1144 175.097 8.01766 175.156 7.89132C175.216 7.76229 175.246 7.61075 175.246 7.43671ZM176.343 4.71744C176.343 5.03455 176.265 5.31377 176.11 5.55511C175.958 5.79364 175.744 5.98027 175.471 6.11496C175.197 6.24686 174.882 6.3128 174.528 6.3128C174.174 6.3128 173.859 6.24686 173.583 6.11496C173.309 5.98027 173.093 5.79364 172.935 5.55511C172.78 5.31377 172.703 5.03455 172.703 4.71744C172.703 4.34701 172.78 4.03411 172.935 3.77874C173.093 3.52336 173.309 3.32974 173.583 3.19784C173.857 3.06594 174.169 3 174.521 3C174.877 3 175.193 3.06594 175.467 3.19784C175.741 3.32974 175.955 3.52336 176.11 3.77874C176.265 4.03411 176.343 4.34701 176.343 4.71744ZM175.133 4.78479C175.133 4.63045 175.109 4.49715 175.06 4.3849C175.013 4.26984 174.945 4.18144 174.854 4.1197C174.764 4.05516 174.653 4.02289 174.521 4.02289C174.394 4.02289 174.286 4.05376 174.195 4.11549C174.105 4.17442 174.035 4.26142 173.986 4.37648C173.939 4.48873 173.916 4.62483 173.916 4.78479C173.916 4.94194 173.939 5.07945 173.986 5.19731C174.035 5.31237 174.105 5.40357 174.195 5.47093C174.288 5.53547 174.399 5.56774 174.528 5.56774C174.66 5.56774 174.77 5.53547 174.858 5.47093C174.948 5.40357 175.017 5.31237 175.063 5.19731C175.11 5.07945 175.133 4.94194 175.133 4.78479ZM194.881 8.77534V9.2173H191.706V8.77534H194.881ZM191.849 3.08839V9.2173H191.373V3.08839H191.849ZM194.485 5.83714V6.27913H191.706V5.83714H194.485ZM194.862 3.08839V3.53459H191.706V3.08839H194.862ZM199.3 3.08839H199.777V7.23891C199.777 7.69907 199.688 8.08212 199.51 8.38807C199.331 8.69392 199.091 8.92266 198.789 9.0742C198.489 9.22573 198.157 9.3015 197.792 9.3015C197.418 9.3015 197.08 9.22573 196.78 9.0742C196.481 8.92266 196.243 8.69392 196.067 8.38807C195.894 8.08212 195.807 7.69907 195.807 7.23891V3.08839H196.28V7.23891C196.28 7.59524 196.345 7.89419 196.474 8.13548C196.603 8.37686 196.782 8.55781 197.009 8.6785C197.237 8.79919 197.498 8.85954 197.792 8.85954C198.084 8.85954 198.344 8.79919 198.572 8.6785C198.799 8.55781 198.977 8.37686 199.106 8.13548C199.236 7.89419 199.3 7.59524 199.3 7.23891V3.08839ZM201.107 3.08839H202.94C203.331 3.08839 203.669 3.15715 203.956 3.29465C204.243 3.43216 204.464 3.63562 204.619 3.90502C204.777 4.17162 204.856 4.49996 204.856 4.89002C204.856 5.17907 204.799 5.44146 204.685 5.67719C204.574 5.91291 204.42 6.11076 204.224 6.27071C204.027 6.42787 203.8 6.53592 203.541 6.59483L203.375 6.66217H201.417L201.409 6.2202H203.049C203.344 6.2202 203.589 6.15846 203.786 6.03498C203.982 5.91151 204.129 5.74875 204.228 5.54669C204.328 5.34183 204.379 5.12295 204.379 4.89002C204.379 4.6122 204.323 4.37226 204.212 4.17022C204.103 3.96536 203.942 3.80821 203.727 3.69876C203.513 3.58931 203.251 3.53459 202.94 3.53459H201.584V9.2173H201.107V3.08839ZM204.592 9.2173L203.13 6.47701L203.642 6.4728L205.1 9.16261V9.2173H204.592ZM208.876 6.45594L207.914 6.20757L208.244 3.08839H211.477V4.12812H209.236L209.1 5.42041C209.17 5.37551 209.28 5.3264 209.43 5.27308C209.58 5.21696 209.748 5.18889 209.934 5.18889C210.21 5.18889 210.456 5.23519 210.671 5.3278C210.885 5.42041 211.066 5.55511 211.213 5.73191C211.363 5.9059 211.476 6.12058 211.551 6.37596C211.628 6.63133 211.667 6.92175 211.667 7.24734C211.667 7.51669 211.628 7.77484 211.551 8.02187C211.473 8.26594 211.354 8.48491 211.194 8.6785C211.036 8.86931 210.836 9.02084 210.593 9.13311C210.35 9.24537 210.064 9.3015 209.736 9.3015C209.488 9.3015 209.248 9.26079 209.015 9.17937C208.783 9.09805 208.573 8.98013 208.387 8.82582C208.204 8.66863 208.058 8.47782 207.949 8.25339C207.843 8.02887 207.789 7.77627 207.786 7.49562H208.996C209.009 7.65846 209.046 7.79869 209.108 7.9166C209.17 8.03164 209.254 8.12149 209.36 8.18596C209.466 8.24774 209.589 8.27858 209.728 8.27858C209.863 8.27858 209.977 8.25052 210.07 8.19439C210.163 8.13548 210.236 8.05549 210.291 7.95444C210.347 7.85348 210.389 7.73556 210.415 7.60089C210.441 7.46621 210.453 7.32167 210.453 7.16735C210.453 7.00739 210.437 6.86428 210.403 6.73794C210.369 6.60891 210.318 6.49943 210.248 6.40958C210.178 6.31702 210.089 6.24686 209.98 6.19915C209.875 6.14864 209.747 6.12338 209.597 6.12338C209.4 6.12338 209.246 6.15846 209.135 6.22862C209.024 6.29877 208.938 6.37452 208.876 6.45594ZM213.57 8.16919L213.562 9.02784C213.562 9.35342 213.489 9.67756 213.341 10.0003C213.194 10.3258 213.009 10.5923 212.787 10.8L212.167 10.4675C212.226 10.3384 212.287 10.2079 212.349 10.076C212.414 9.94692 212.467 9.80381 212.508 9.64662C212.552 9.48953 212.574 9.30571 212.574 9.09527V8.16919H213.57ZM218.304 3.08839V3.79557L216.156 9.2173H214.877L217.024 4.11128H214.272V3.08839H218.304ZM222.905 8.19439V9.2173H219.005V8.35014L220.827 6.25387C220.998 6.04059 221.134 5.85257 221.234 5.68981C221.338 5.52705 221.413 5.37972 221.459 5.24783C221.506 5.11312 221.529 4.98965 221.529 4.8774C221.529 4.69499 221.502 4.54065 221.448 4.41436C221.396 4.28807 221.32 4.19126 221.219 4.12391C221.118 4.05656 220.995 4.02289 220.851 4.02289C220.696 4.02289 220.562 4.06638 220.451 4.15338C220.34 4.24037 220.255 4.36104 220.195 4.51539C220.136 4.66692 220.106 4.83951 220.106 5.03315H218.889C218.889 4.65991 218.972 4.32035 219.137 4.01447C219.303 3.70577 219.534 3.46023 219.831 3.27782C220.128 3.09261 220.476 3 220.874 3C221.282 3 221.625 3.07015 221.901 3.21046C222.178 3.35078 222.387 3.55143 222.529 3.81241C222.671 4.0734 222.742 4.3877 222.742 4.75533C222.742 4.96298 222.711 5.16364 222.649 5.35726C222.59 5.5509 222.503 5.74314 222.39 5.93396C222.276 6.12478 222.139 6.31982 221.979 6.51906C221.818 6.71552 221.638 6.92319 221.436 7.14206L220.583 8.19439H222.905ZM238.358 3.08839V9.2173H237.881V3.08839H238.358ZM241.835 6.27071H240.246L240.238 5.83294H241.606C241.886 5.83294 242.123 5.78944 242.32 5.70245C242.516 5.61545 242.665 5.48636 242.765 5.31518C242.868 5.14119 242.92 4.92791 242.92 4.67534C242.92 4.41717 242.87 4.20389 242.77 4.03551C242.668 3.86433 242.517 3.73805 242.315 3.65666C242.114 3.57528 241.861 3.53459 241.556 3.53459H240.369V9.2173H239.893V3.08839H241.556C241.842 3.08839 242.1 3.11926 242.328 3.181C242.554 3.24274 242.748 3.33956 242.909 3.47145C243.069 3.60335 243.19 3.77032 243.273 3.97237C243.358 4.17162 243.401 4.41016 243.401 4.68797C243.401 4.94054 243.349 5.16925 243.246 5.3741C243.143 5.57616 242.996 5.74173 242.808 5.87082C242.622 5.9971 242.398 6.07567 242.137 6.10654L241.835 6.27071ZM241.8 9.2173H240.094L240.338 8.77534H241.8C242.079 8.77534 242.317 8.72476 242.513 8.6238C242.712 8.51997 242.865 8.37265 242.971 8.18174C243.077 7.99093 243.13 7.76363 243.13 7.49983C243.13 7.26697 243.083 7.05787 242.99 6.87261C242.898 6.68746 242.755 6.54148 242.564 6.43486C242.373 6.32544 242.129 6.27071 241.835 6.27071H240.847L240.854 5.83294H242.254L242.339 5.98868C242.592 6.01674 242.813 6.10234 243.002 6.24545C243.193 6.38573 243.34 6.56399 243.444 6.78008C243.549 6.99618 243.602 7.23325 243.602 7.4914C243.602 7.86191 243.527 8.17619 243.374 8.43434C243.224 8.6897 243.013 8.88473 242.742 9.0195C242.473 9.1514 242.159 9.2173 241.8 9.2173ZM248.929 5.82452V6.48123C248.929 6.91055 248.878 7.29925 248.774 7.64715C248.673 7.99237 248.526 8.28845 248.332 8.53539C248.141 8.78233 247.911 8.9718 247.642 9.1036C247.374 9.2355 247.071 9.3015 246.735 9.3015C246.407 9.3015 246.107 9.2355 245.836 9.1036C245.567 8.9718 245.336 8.78233 245.142 8.53539C244.948 8.28845 244.798 7.99237 244.692 7.64715C244.586 7.29925 244.533 6.91055 244.533 6.48123V5.82452C244.533 5.39516 244.585 5.00789 244.688 4.66272C244.794 4.31474 244.944 4.01727 245.138 3.77032C245.331 3.52336 245.563 3.33394 245.832 3.20204C246.101 3.07015 246.399 3.0042 246.727 3.0042C247.063 3.0042 247.366 3.07015 247.635 3.20204C247.903 3.33394 248.135 3.52336 248.328 3.77032C248.522 4.01727 248.67 4.31474 248.774 4.66272C248.878 5.00789 248.929 5.39516 248.929 5.82452ZM248.456 6.48123V5.8161C248.456 5.45409 248.417 5.12856 248.34 4.83951C248.265 4.55047 248.153 4.30352 248.003 4.09865C247.855 3.89379 247.674 3.73664 247.46 3.6272C247.246 3.51775 247.001 3.46304 246.727 3.46304C246.461 3.46304 246.222 3.51775 246.01 3.6272C245.798 3.73664 245.617 3.89379 245.467 4.09865C245.32 4.30352 245.206 4.55047 245.126 4.83951C245.049 5.12856 245.01 5.45409 245.01 5.8161V6.48123C245.01 6.84599 245.049 7.17435 245.126 7.46621C245.206 7.7552 245.322 8.00358 245.472 8.21125C245.621 8.41614 245.802 8.57323 246.014 8.68271C246.229 8.7922 246.468 8.84689 246.735 8.84689C247.012 8.84689 247.255 8.7922 247.468 8.68271C247.68 8.57323 247.86 8.41614 248.007 8.21125C248.154 8.00358 248.265 7.7552 248.34 7.46621C248.417 7.17435 248.456 6.84599 248.456 6.48123ZM251.813 8.45541L253.593 3.08839H254.112L252.011 9.2173H251.627L251.813 8.45541ZM249.976 3.08839L251.747 8.45541L251.941 9.2173H251.554L249.456 3.08839H249.976ZM258.985 6.06866V7.0958H256.729V6.06866H258.985ZM262.734 3.08419V9.2173H261.521V4.58274L260.211 5.01631V3.99763L262.614 3.08419H262.734ZM265.704 8.16919L265.696 9.02784C265.696 9.35342 265.622 9.67756 265.474 10.0003C265.327 10.3258 265.143 10.5923 264.921 10.8L264.3 10.4675C264.359 10.3384 264.42 10.2079 264.482 10.076C264.547 9.94692 264.6 9.80381 264.641 9.64662C264.685 9.48953 264.707 9.30571 264.707 9.09527V8.16919H265.704ZM269.363 3.08419V9.2173H268.15V4.58274L266.839 5.01631V3.99763L269.243 3.08419H269.363ZM275 7.53355C275 7.92082 274.915 8.2463 274.748 8.5101C274.58 8.7739 274.35 8.9718 274.058 9.1036C273.769 9.2355 273.438 9.3015 273.065 9.3015C272.696 9.3015 272.363 9.2355 272.069 9.1036C271.777 8.9718 271.545 8.7739 271.375 8.5101C271.204 8.2463 271.119 7.92082 271.119 7.53355C271.119 7.26975 271.167 7.03258 271.262 6.82213C271.361 6.61169 271.496 6.43209 271.67 6.28334C271.845 6.13461 272.051 6.02096 272.286 5.94237C272.524 5.8638 272.781 5.82452 273.058 5.82452C273.43 5.82452 273.761 5.89467 274.053 6.03498C274.348 6.17249 274.58 6.36896 274.748 6.62433C274.915 6.8797 275 7.18277 275 7.53355ZM273.783 7.43671C273.783 7.25711 273.752 7.10557 273.689 6.9821C273.63 6.85585 273.546 6.75901 273.438 6.69167C273.329 6.62146 273.202 6.5864 273.058 6.5864C272.913 6.5864 272.786 6.62146 272.677 6.69167C272.569 6.75901 272.484 6.85585 272.421 6.9821C272.362 7.10557 272.332 7.25711 272.332 7.43671C272.332 7.61075 272.363 7.76229 272.426 7.89132C272.488 8.01766 272.573 8.1144 272.682 8.18174C272.79 8.2463 272.918 8.27858 273.065 8.27858C273.213 8.27858 273.339 8.2463 273.445 8.18174C273.552 8.1144 273.634 8.01766 273.694 7.89132C273.753 7.76229 273.783 7.61075 273.783 7.43671ZM274.879 4.71744C274.879 5.03455 274.802 5.31377 274.647 5.55511C274.495 5.79364 274.281 5.98027 274.008 6.11496C273.733 6.24686 273.419 6.3128 273.065 6.3128C272.711 6.3128 272.396 6.24686 272.12 6.11496C271.845 5.98027 271.629 5.79364 271.472 5.55511C271.317 5.31377 271.239 5.03455 271.239 4.71744C271.239 4.34701 271.317 4.03411 271.472 3.77874C271.629 3.52336 271.845 3.32974 272.12 3.19784C272.393 3.06594 272.706 3 273.058 3C273.414 3 273.73 3.06594 274.003 3.19784C274.278 3.32974 274.492 3.52336 274.647 3.77874C274.802 4.03411 274.879 4.34701 274.879 4.71744ZM273.67 4.78479C273.67 4.63045 273.645 4.49715 273.596 4.3849C273.55 4.26984 273.481 4.18144 273.391 4.1197C273.3 4.05516 273.189 4.02289 273.058 4.02289C272.93 4.02289 272.822 4.05376 272.732 4.11549C272.641 4.17442 272.571 4.26142 272.523 4.37648C272.476 4.48873 272.452 4.62483 272.452 4.78479C272.452 4.94194 272.476 5.07945 272.523 5.19731C272.571 5.31237 272.641 5.40357 272.732 5.47093C272.825 5.53547 272.936 5.56774 273.065 5.56774C273.197 5.56774 273.307 5.53547 273.394 5.47093C273.485 5.40357 273.553 5.31237 273.6 5.19731C273.647 5.07945 273.67 4.94194 273.67 4.78479Z" fill="black"/>
<path d="M131 11H289" stroke="#5F328C" stroke-width="0.5"/>
<path d="M181.103 5.49731C181.034 5.42435 181 5.33149 181 5.21873C181 5.10597 181.034 5.01311 181.103 4.94014L182.82 3.10944C182.857 3.06964 182.897 3.04152 182.941 3.02507C182.985 3.00836 183.031 3 183.081 3C183.131 3 183.177 3.00836 183.221 3.02507C183.265 3.04152 183.305 3.06964 183.342 3.10944L185.059 4.94014C185.128 5.01311 185.163 5.10425 185.167 5.21356C185.169 5.32313 185.134 5.41772 185.059 5.49731C184.991 5.57027 184.904 5.60675 184.798 5.60675C184.692 5.60675 184.605 5.57027 184.537 5.49731L183.081 3.95515L181.625 5.49731C181.557 5.57027 181.471 5.60848 181.368 5.61193C181.266 5.61511 181.177 5.57691 181.103 5.49731ZM181.103 7.8852C181.034 7.81219 181 7.71936 181 7.6066C181 7.49383 181.034 7.401 181.103 7.32799L182.82 5.49731C182.857 5.45751 182.897 5.42926 182.941 5.41254C182.985 5.3961 183.031 5.38787 183.081 5.38787C183.131 5.38787 183.177 5.3961 183.221 5.41254C183.265 5.42926 183.305 5.45751 183.342 5.49731L185.059 7.32799C185.128 7.401 185.163 7.4921 185.167 7.6014C185.169 7.71101 185.134 7.80557 185.059 7.8852C184.991 7.95815 184.904 7.99463 184.798 7.99463C184.692 7.99463 184.605 7.95815 184.537 7.8852L183.081 6.343L181.625 7.8852C181.557 7.95815 181.471 7.99636 181.368 7.99982C181.266 8.00298 181.177 7.96478 181.103 7.8852Z" fill="#5CBAB3"/>
<path opacity="0.5" d="M228.103 5.49731C228.034 5.42435 228 5.33149 228 5.21873C228 5.10597 228.034 5.01311 228.103 4.94014L229.821 3.10944C229.859 3.06964 229.899 3.04152 229.943 3.02507C229.986 3.00836 230.033 3 230.083 3C230.133 3 230.179 3.00836 230.223 3.02507C230.266 3.04152 230.307 3.06964 230.344 3.10944L232.062 4.94014C232.131 5.01311 232.166 5.10425 232.17 5.21356C232.173 5.32313 232.137 5.41772 232.062 5.49731C231.994 5.57027 231.907 5.60675 231.801 5.60675C231.695 5.60675 231.608 5.57027 231.539 5.49731L230.083 3.95515L228.626 5.49731C228.558 5.57027 228.472 5.60848 228.369 5.61193C228.266 5.61511 228.178 5.57691 228.103 5.49731ZM228.103 7.8852C228.034 7.81219 228 7.71936 228 7.6066C228 7.49383 228.034 7.401 228.103 7.32799L229.821 5.49731C229.859 5.45751 229.899 5.42926 229.943 5.41254C229.986 5.3961 230.033 5.38787 230.083 5.38787C230.133 5.38787 230.179 5.3961 230.223 5.41254C230.266 5.42926 230.307 5.45751 230.344 5.49731L232.062 7.32799C232.131 7.401 232.166 7.4921 232.17 7.6014C232.173 7.71101 232.137 7.80557 232.062 7.8852C231.994 7.95815 231.907 7.99463 231.801 7.99463C231.695 7.99463 231.608 7.95815 231.539 7.8852L230.083 6.343L228.626 7.8852C228.558 7.95815 228.472 7.99636 228.369 7.99982C228.266 8.00298 228.178 7.96478 228.103 7.8852Z" fill="#5CBAB3"/>
<path d="M281.503 6.61211C281.443 6.61211 281.387 6.60376 281.335 6.58704C281.282 6.57062 281.234 6.54251 281.189 6.50269L279.129 4.67197C279.047 4.59901 279.004 4.50774 279 4.39816C278.997 4.28885 279.039 4.1944 279.129 4.1148C279.211 4.04184 279.315 4.00535 279.442 4.00535C279.569 4.00535 279.674 4.04184 279.756 4.1148L281.503 5.65698L283.25 4.1148C283.332 4.04184 283.434 4.00363 283.557 4.00018C283.681 3.997 283.787 4.0352 283.876 4.1148C283.959 4.18776 284 4.28063 284 4.39339C284 4.50615 283.959 4.59901 283.876 4.67197L281.817 6.50269C281.772 6.54251 281.723 6.57062 281.671 6.58704C281.618 6.60376 281.563 6.61211 281.503 6.61211ZM281.503 9C281.443 9 281.387 8.99164 281.335 8.97493C281.282 8.95851 281.234 8.93039 281.189 8.89058L279.129 7.05984C279.047 6.98689 279.004 6.89562 279 6.78607C278.997 6.67677 279.039 6.58227 279.129 6.50269C279.211 6.42974 279.315 6.39326 279.442 6.39326C279.569 6.39326 279.674 6.42974 279.756 6.50269L281.503 8.04485L283.25 6.50269C283.332 6.42974 283.434 6.39153 283.557 6.38807C283.681 6.38491 283.787 6.42311 283.876 6.50269C283.959 6.57564 284 6.66853 284 6.7813C284 6.89406 283.959 6.98689 283.876 7.05984L281.817 8.89058C281.772 8.93039 281.723 8.95851 281.671 8.97493C281.618 8.99164 281.563 9 281.503 9Z" fill="#5F328C"/>
</svg>
