<svg width="334" height="22" viewBox="0 0 334 22" fill="none" xmlns="http://www.w3.org/2000/svg">
<g clip-path="url(#clip0_4_14)">
<rect width="333.5" height="22" fill="white"/>
<g clip-path="url(#clip1_4_14)">
<path d="M250 1H84C81.2386 1 79 3.23858 79 6V18C79 20.7614 81.2386 23 84 23H250C252.761 23 255 20.7614 255 18V6C255 3.23858 252.761 1 250 1Z" fill="white" fill-opacity="0.9"/>
<path d="M90.2725 14H88.8223L88.831 13.5386H90.2725C90.7324 13.5386 91.1279 13.436 91.459 13.231C91.793 13.0229 92.0508 12.7358 92.2324 12.3696C92.4141 12.0034 92.5049 11.5786 92.5049 11.0952V10.4976C92.5049 10.1284 92.4521 9.79443 92.3467 9.49561C92.2441 9.19678 92.0962 8.94189 91.9028 8.73096C91.7095 8.51709 91.478 8.35303 91.2085 8.23877C90.9419 8.12451 90.6431 8.06738 90.312 8.06738H88.7959V7.60156H90.312C90.7104 7.60156 91.0752 7.67041 91.4062 7.80811C91.7402 7.94287 92.0288 8.13916 92.272 8.39697C92.5181 8.65186 92.707 8.95801 92.8389 9.31543C92.9736 9.67285 93.041 10.0713 93.041 10.5107V11.0952C93.041 11.5347 92.9736 11.9331 92.8389 12.2905C92.707 12.6479 92.5181 12.9541 92.272 13.209C92.0259 13.4639 91.7344 13.6602 91.3975 13.7979C91.0605 13.9326 90.6855 14 90.2725 14ZM89.064 7.60156V14H88.5234V7.60156H89.064ZM99.145 10.458V11.1436C99.145 11.5918 99.0864 11.9976 98.9692 12.3608C98.855 12.7212 98.688 13.0303 98.4683 13.2881C98.2515 13.5459 97.9907 13.7437 97.686 13.8813C97.3813 14.019 97.0386 14.0879 96.6577 14.0879C96.2856 14.0879 95.9458 14.019 95.6382 13.8813C95.3335 13.7437 95.0713 13.5459 94.8516 13.2881C94.6318 13.0303 94.4619 12.7212 94.3418 12.3608C94.2217 11.9976 94.1616 11.5918 94.1616 11.1436V10.458C94.1616 10.0098 94.2202 9.60547 94.3374 9.24512C94.4575 8.88184 94.6274 8.57129 94.8472 8.31348C95.0669 8.05566 95.3291 7.85791 95.6338 7.72021C95.9385 7.58252 96.2769 7.51367 96.6489 7.51367C97.0298 7.51367 97.3726 7.58252 97.6772 7.72021C97.9819 7.85791 98.2441 8.05566 98.4639 8.31348C98.6836 8.57129 98.8521 8.88184 98.9692 9.24512C99.0864 9.60547 99.145 10.0098 99.145 10.458ZM98.6089 11.1436V10.4492C98.6089 10.0713 98.5649 9.73145 98.4771 9.42969C98.3921 9.12793 98.2646 8.87012 98.0947 8.65625C97.9277 8.44238 97.7227 8.27832 97.4795 8.16406C97.2363 8.0498 96.9595 7.99268 96.6489 7.99268C96.3472 7.99268 96.0762 8.0498 95.8359 8.16406C95.5957 8.27832 95.3906 8.44238 95.2207 8.65625C95.0537 8.87012 94.9248 9.12793 94.834 9.42969C94.7461 9.73145 94.7021 10.0713 94.7021 10.4492V11.1436C94.7021 11.5244 94.7461 11.8672 94.834 12.1719C94.9248 12.4736 95.0552 12.7329 95.2251 12.9497C95.395 13.1636 95.6001 13.3276 95.8403 13.4419C96.0835 13.5562 96.356 13.6133 96.6577 13.6133C96.9712 13.6133 97.248 13.5562 97.4883 13.4419C97.7285 13.3276 97.9321 13.1636 98.0991 12.9497C98.2661 12.7329 98.3921 12.4736 98.4771 12.1719C98.5649 11.8672 98.6089 11.5244 98.6089 11.1436ZM104.212 13.5386V14H100.894V13.5386H104.212ZM101.052 7.60156V14H100.512V7.60156H101.052ZM108.33 11.1172L107.24 10.8579L107.613 7.60156H111.278V8.68701H108.738L108.584 10.0361C108.664 9.98926 108.788 9.93799 108.958 9.88232C109.128 9.82373 109.318 9.79443 109.529 9.79443C109.843 9.79443 110.121 9.84277 110.364 9.93945C110.607 10.0361 110.812 10.1768 110.979 10.3613C111.149 10.543 111.277 10.7671 111.362 11.0337C111.45 11.3003 111.494 11.6035 111.494 11.9434C111.494 12.2246 111.45 12.4941 111.362 12.752C111.274 13.0068 111.139 13.2354 110.957 13.4375C110.779 13.6367 110.552 13.7949 110.276 13.9121C110.001 14.0293 109.677 14.0879 109.305 14.0879C109.024 14.0879 108.751 14.0454 108.488 13.9604C108.224 13.8755 107.987 13.7524 107.776 13.5913C107.568 13.4272 107.402 13.228 107.279 12.9937C107.159 12.7593 107.098 12.4956 107.095 12.2026H108.466C108.48 12.3726 108.523 12.519 108.593 12.6421C108.664 12.7622 108.759 12.856 108.879 12.9233C108.999 12.9878 109.138 13.02 109.296 13.02C109.449 13.02 109.578 12.9907 109.683 12.9321C109.789 12.8706 109.872 12.7871 109.934 12.6816C109.998 12.5762 110.045 12.4531 110.074 12.3125C110.103 12.1719 110.118 12.021 110.118 11.8599C110.118 11.6929 110.099 11.5435 110.061 11.4116C110.023 11.2769 109.964 11.1626 109.885 11.0688C109.806 10.9722 109.705 10.8989 109.582 10.8491C109.462 10.7964 109.317 10.77 109.147 10.77C108.924 10.77 108.75 10.8066 108.624 10.8799C108.498 10.9531 108.4 11.0322 108.33 11.1172ZM113.651 12.9058L113.643 13.8022C113.643 14.1421 113.559 14.4805 113.392 14.8174C113.225 15.1572 113.016 15.4355 112.764 15.6523L112.06 15.3052C112.128 15.1704 112.197 15.0342 112.267 14.8965C112.34 14.7617 112.4 14.6123 112.447 14.4482C112.497 14.2842 112.522 14.0923 112.522 13.8726V12.9058H113.651ZM119.039 12.9321V14H114.618V13.0947L116.684 10.9062C116.877 10.6836 117.031 10.4873 117.145 10.3174C117.262 10.1475 117.347 9.99365 117.4 9.85596C117.453 9.71533 117.479 9.58643 117.479 9.46924C117.479 9.27881 117.448 9.11768 117.387 8.98584C117.328 8.854 117.242 8.75293 117.127 8.68262C117.013 8.6123 116.874 8.57715 116.71 8.57715C116.534 8.57715 116.383 8.62256 116.257 8.71338C116.131 8.8042 116.035 8.93018 115.967 9.09131C115.9 9.24951 115.866 9.42969 115.866 9.63184H114.486C114.486 9.24219 114.58 8.8877 114.768 8.56836C114.955 8.24609 115.217 7.98975 115.554 7.79932C115.891 7.60596 116.285 7.50928 116.736 7.50928C117.199 7.50928 117.587 7.58252 117.901 7.729C118.214 7.87549 118.452 8.08496 118.613 8.35742C118.774 8.62988 118.854 8.95801 118.854 9.3418C118.854 9.55859 118.819 9.76807 118.749 9.97021C118.682 10.1724 118.583 10.373 118.455 10.5723C118.326 10.7715 118.17 10.9751 117.989 11.1831C117.807 11.3882 117.602 11.605 117.373 11.8335L116.407 12.9321H119.039ZM124.189 12.2422C124.189 12.6465 124.094 12.9863 123.904 13.2617C123.713 13.5371 123.453 13.7437 123.122 13.8813C122.793 14.019 122.418 14.0879 121.997 14.0879C121.578 14.0879 121.201 14.019 120.867 13.8813C120.536 13.7437 120.274 13.5371 120.081 13.2617C119.887 12.9863 119.79 12.6465 119.79 12.2422C119.79 11.9668 119.845 11.7192 119.953 11.4995C120.064 11.2798 120.218 11.0923 120.415 10.937C120.614 10.7817 120.847 10.6631 121.113 10.581C121.383 10.499 121.674 10.458 121.988 10.458C122.41 10.458 122.786 10.5312 123.117 10.6777C123.451 10.8213 123.713 11.0264 123.904 11.293C124.094 11.5596 124.189 11.876 124.189 12.2422ZM122.81 12.1411C122.81 11.9536 122.774 11.7954 122.704 11.6665C122.637 11.5347 122.541 11.4336 122.418 11.3633C122.295 11.29 122.152 11.2534 121.988 11.2534C121.824 11.2534 121.68 11.29 121.557 11.3633C121.434 11.4336 121.337 11.5347 121.267 11.6665C121.2 11.7954 121.166 11.9536 121.166 12.1411C121.166 12.3228 121.201 12.481 121.271 12.6157C121.342 12.7476 121.438 12.8486 121.561 12.9189C121.685 12.9863 121.83 13.02 121.997 13.02C122.164 13.02 122.307 12.9863 122.427 12.9189C122.547 12.8486 122.641 12.7476 122.708 12.6157C122.776 12.481 122.81 12.3228 122.81 12.1411ZM124.053 9.30225C124.053 9.6333 123.965 9.9248 123.79 10.1768C123.617 10.4258 123.375 10.6206 123.064 10.7612C122.754 10.8989 122.398 10.9678 121.997 10.9678C121.595 10.9678 121.238 10.8989 120.924 10.7612C120.614 10.6206 120.369 10.4258 120.19 10.1768C120.015 9.9248 119.927 9.6333 119.927 9.30225C119.927 8.91553 120.015 8.58887 120.19 8.32227C120.369 8.05566 120.614 7.85352 120.924 7.71582C121.235 7.57812 121.589 7.50928 121.988 7.50928C122.392 7.50928 122.749 7.57812 123.06 7.71582C123.371 7.85352 123.614 8.05566 123.79 8.32227C123.965 8.58887 124.053 8.91553 124.053 9.30225ZM122.682 9.37256C122.682 9.21143 122.654 9.07227 122.599 8.95508C122.546 8.83496 122.468 8.74268 122.366 8.67822C122.263 8.61084 122.137 8.57715 121.988 8.57715C121.844 8.57715 121.721 8.60938 121.619 8.67383C121.516 8.73535 121.437 8.82617 121.381 8.94629C121.329 9.06348 121.302 9.20557 121.302 9.37256C121.302 9.53662 121.329 9.68018 121.381 9.80322C121.437 9.92334 121.516 10.0185 121.619 10.0889C121.724 10.1562 121.85 10.1899 121.997 10.1899C122.146 10.1899 122.27 10.1562 122.37 10.0889C122.473 10.0185 122.55 9.92334 122.603 9.80322C122.656 9.68018 122.682 9.53662 122.682 9.37256ZM145.068 13.5386V14H141.469V13.5386H145.068ZM141.631 7.60156V14H141.091V7.60156H141.631ZM144.62 10.4712V10.9326H141.469V10.4712H144.62ZM145.046 7.60156V8.06738H141.469V7.60156H145.046ZM150.078 7.60156H150.618V11.9346C150.618 12.415 150.517 12.8149 150.315 13.1343C150.113 13.4536 149.84 13.6924 149.498 13.8506C149.158 14.0088 148.781 14.0879 148.368 14.0879C147.943 14.0879 147.561 14.0088 147.221 13.8506C146.881 13.6924 146.612 13.4536 146.413 13.1343C146.216 12.8149 146.118 12.415 146.118 11.9346V7.60156H146.654V11.9346C146.654 12.3066 146.727 12.6187 146.874 12.8706C147.02 13.1226 147.223 13.3115 147.48 13.4375C147.738 13.5635 148.034 13.6265 148.368 13.6265C148.699 13.6265 148.994 13.5635 149.251 13.4375C149.509 13.3115 149.711 13.1226 149.858 12.8706C150.004 12.6187 150.078 12.3066 150.078 11.9346V7.60156ZM152.125 7.60156H154.204C154.647 7.60156 155.03 7.67334 155.355 7.81689C155.681 7.96045 155.931 8.17285 156.107 8.4541C156.286 8.73242 156.375 9.0752 156.375 9.48242C156.375 9.78418 156.311 10.0581 156.182 10.3042C156.056 10.5503 155.881 10.7568 155.659 10.9238C155.436 11.0879 155.178 11.2007 154.885 11.2622L154.696 11.3325H152.477L152.468 10.8711H154.327C154.661 10.8711 154.94 10.8066 155.162 10.6777C155.385 10.5488 155.552 10.3789 155.663 10.168C155.777 9.9541 155.835 9.72559 155.835 9.48242C155.835 9.19238 155.772 8.94189 155.646 8.73096C155.523 8.51709 155.339 8.35303 155.096 8.23877C154.853 8.12451 154.556 8.06738 154.204 8.06738H152.666V14H152.125V7.60156ZM156.076 14L154.419 11.1392L154.999 11.1348L156.652 13.9429V14H156.076ZM160.932 11.1172L159.842 10.8579L160.216 7.60156H163.881V8.68701H161.341L161.187 10.0361C161.266 9.98926 161.391 9.93799 161.561 9.88232C161.731 9.82373 161.921 9.79443 162.132 9.79443C162.445 9.79443 162.724 9.84277 162.967 9.93945C163.21 10.0361 163.415 10.1768 163.582 10.3613C163.752 10.543 163.879 10.7671 163.964 11.0337C164.052 11.3003 164.096 11.6035 164.096 11.9434C164.096 12.2246 164.052 12.4941 163.964 12.752C163.877 13.0068 163.742 13.2354 163.56 13.4375C163.381 13.6367 163.154 13.7949 162.879 13.9121C162.603 14.0293 162.28 14.0879 161.908 14.0879C161.626 14.0879 161.354 14.0454 161.09 13.9604C160.827 13.8755 160.589 13.7524 160.378 13.5913C160.17 13.4272 160.005 13.228 159.882 12.9937C159.762 12.7593 159.7 12.4956 159.697 12.2026H161.068C161.083 12.3726 161.126 12.519 161.196 12.6421C161.266 12.7622 161.361 12.856 161.481 12.9233C161.602 12.9878 161.741 13.02 161.899 13.02C162.051 13.02 162.18 12.9907 162.286 12.9321C162.391 12.8706 162.475 12.7871 162.536 12.6816C162.601 12.5762 162.648 12.4531 162.677 12.3125C162.706 12.1719 162.721 12.021 162.721 11.8599C162.721 11.6929 162.702 11.5435 162.664 11.4116C162.625 11.2769 162.567 11.1626 162.488 11.0688C162.409 10.9722 162.308 10.8989 162.185 10.8491C162.065 10.7964 161.919 10.77 161.749 10.77C161.527 10.77 161.353 10.8066 161.227 10.8799C161.101 10.9531 161.002 11.0322 160.932 11.1172ZM166.254 12.9058L166.245 13.8022C166.245 14.1421 166.162 14.4805 165.995 14.8174C165.828 15.1572 165.618 15.4355 165.366 15.6523L164.663 15.3052C164.731 15.1704 164.799 15.0342 164.87 14.8965C164.943 14.7617 165.003 14.6123 165.05 14.4482C165.1 14.2842 165.124 14.0923 165.124 13.8726V12.9058H166.254ZM171.62 7.60156V8.33984L169.185 14H167.735L170.169 8.66943H167.049V7.60156H171.62ZM176.836 12.9321V14H172.415V13.0947L174.48 10.9062C174.674 10.6836 174.828 10.4873 174.942 10.3174C175.059 10.1475 175.144 9.99365 175.197 9.85596C175.25 9.71533 175.276 9.58643 175.276 9.46924C175.276 9.27881 175.245 9.11768 175.184 8.98584C175.125 8.854 175.039 8.75293 174.924 8.68262C174.81 8.6123 174.671 8.57715 174.507 8.57715C174.331 8.57715 174.18 8.62256 174.054 8.71338C173.928 8.8042 173.831 8.93018 173.764 9.09131C173.697 9.24951 173.663 9.42969 173.663 9.63184H172.283C172.283 9.24219 172.377 8.8877 172.564 8.56836C172.752 8.24609 173.014 7.98975 173.351 7.79932C173.688 7.60596 174.082 7.50928 174.533 7.50928C174.996 7.50928 175.384 7.58252 175.698 7.729C176.011 7.87549 176.248 8.08496 176.41 8.35742C176.571 8.62988 176.651 8.95801 176.651 9.3418C176.651 9.55859 176.616 9.76807 176.546 9.97021C176.478 10.1724 176.38 10.373 176.252 10.5723C176.123 10.7715 175.967 10.9751 175.786 11.1831C175.604 11.3882 175.399 11.605 175.17 11.8335L174.204 12.9321H176.836ZM194.353 7.60156V14H193.812V7.60156H194.353ZM198.294 10.9238H196.493L196.484 10.4668H198.035C198.352 10.4668 198.621 10.4214 198.844 10.3306C199.066 10.2397 199.235 10.105 199.349 9.92627C199.466 9.74463 199.525 9.52197 199.525 9.2583C199.525 8.98877 199.468 8.76611 199.354 8.59033C199.239 8.41162 199.068 8.27979 198.839 8.19482C198.611 8.10986 198.324 8.06738 197.978 8.06738H196.633V14H196.093V7.60156H197.978C198.303 7.60156 198.595 7.63379 198.853 7.69824C199.11 7.7627 199.33 7.86377 199.512 8.00146C199.693 8.13916 199.831 8.31348 199.925 8.52441C200.021 8.73242 200.07 8.98145 200.07 9.27148C200.07 9.53516 200.011 9.77393 199.894 9.98779C199.777 10.1987 199.611 10.3716 199.397 10.5063C199.187 10.6382 198.933 10.7202 198.637 10.7524L198.294 10.9238ZM198.255 14H196.321L196.598 13.5386H198.255C198.571 13.5386 198.841 13.4858 199.063 13.3804C199.289 13.272 199.462 13.1182 199.582 12.9189C199.702 12.7197 199.762 12.4824 199.762 12.207C199.762 11.9639 199.709 11.7456 199.604 11.5522C199.499 11.3589 199.337 11.2065 199.121 11.0952C198.904 10.981 198.628 10.9238 198.294 10.9238H197.174L197.183 10.4668H198.769L198.866 10.6294C199.153 10.6587 199.403 10.748 199.617 10.8975C199.834 11.0439 200.001 11.23 200.118 11.4556C200.238 11.6812 200.298 11.9287 200.298 12.1982C200.298 12.585 200.212 12.9131 200.039 13.1826C199.869 13.4492 199.63 13.6528 199.323 13.7935C199.018 13.9312 198.662 14 198.255 14ZM206.336 10.458V11.1436C206.336 11.5918 206.278 11.9976 206.161 12.3608C206.046 12.7212 205.879 13.0303 205.66 13.2881C205.443 13.5459 205.182 13.7437 204.877 13.8813C204.573 14.019 204.23 14.0879 203.849 14.0879C203.477 14.0879 203.137 14.019 202.83 13.8813C202.525 13.7437 202.263 13.5459 202.043 13.2881C201.823 13.0303 201.653 12.7212 201.533 12.3608C201.413 11.9976 201.353 11.5918 201.353 11.1436V10.458C201.353 10.0098 201.412 9.60547 201.529 9.24512C201.649 8.88184 201.819 8.57129 202.039 8.31348C202.258 8.05566 202.521 7.85791 202.825 7.72021C203.13 7.58252 203.468 7.51367 203.84 7.51367C204.221 7.51367 204.564 7.58252 204.869 7.72021C205.173 7.85791 205.436 8.05566 205.655 8.31348C205.875 8.57129 206.043 8.88184 206.161 9.24512C206.278 9.60547 206.336 10.0098 206.336 10.458ZM205.8 11.1436V10.4492C205.8 10.0713 205.756 9.73145 205.668 9.42969C205.583 9.12793 205.456 8.87012 205.286 8.65625C205.119 8.44238 204.914 8.27832 204.671 8.16406C204.428 8.0498 204.151 7.99268 203.84 7.99268C203.539 7.99268 203.268 8.0498 203.027 8.16406C202.787 8.27832 202.582 8.44238 202.412 8.65625C202.245 8.87012 202.116 9.12793 202.025 9.42969C201.938 9.73145 201.894 10.0713 201.894 10.4492V11.1436C201.894 11.5244 201.938 11.8672 202.025 12.1719C202.116 12.4736 202.247 12.7329 202.417 12.9497C202.586 13.1636 202.792 13.3276 203.032 13.4419C203.275 13.5562 203.547 13.6133 203.849 13.6133C204.163 13.6133 204.439 13.5562 204.68 13.4419C204.92 13.3276 205.124 13.1636 205.291 12.9497C205.458 12.7329 205.583 12.4736 205.668 12.1719C205.756 11.8672 205.8 11.5244 205.8 11.1436ZM209.606 13.2046L211.623 7.60156H212.212L209.83 14H209.395L209.606 13.2046ZM207.523 7.60156L209.531 13.2046L209.751 14H209.312L206.934 7.60156H207.523ZM217.736 10.7129V11.7852H215.178V10.7129H217.736ZM221.985 7.59717V14H220.61V9.16162L219.125 9.61426V8.55078L221.849 7.59717H221.985ZM225.352 12.9058L225.343 13.8022C225.343 14.1421 225.259 14.4805 225.092 14.8174C224.925 15.1572 224.716 15.4355 224.464 15.6523L223.761 15.3052C223.828 15.1704 223.897 15.0342 223.967 14.8965C224.041 14.7617 224.101 14.6123 224.147 14.4482C224.197 14.2842 224.222 14.0923 224.222 13.8726V12.9058H225.352ZM229.5 7.59717V14H228.125V9.16162L226.639 9.61426V8.55078L229.364 7.59717H229.5ZM235.89 12.2422C235.89 12.6465 235.794 12.9863 235.604 13.2617C235.414 13.5371 235.153 13.7437 234.822 13.8813C234.494 14.019 234.119 14.0879 233.697 14.0879C233.278 14.0879 232.901 14.019 232.567 13.8813C232.236 13.7437 231.974 13.5371 231.781 13.2617C231.587 12.9863 231.491 12.6465 231.491 12.2422C231.491 11.9668 231.545 11.7192 231.653 11.4995C231.765 11.2798 231.918 11.0923 232.115 10.937C232.314 10.7817 232.547 10.6631 232.813 10.581C233.083 10.499 233.375 10.458 233.688 10.458C234.11 10.458 234.486 10.5312 234.817 10.6777C235.151 10.8213 235.414 11.0264 235.604 11.293C235.794 11.5596 235.89 11.876 235.89 12.2422ZM234.51 12.1411C234.51 11.9536 234.475 11.7954 234.404 11.6665C234.337 11.5347 234.242 11.4336 234.119 11.3633C233.996 11.29 233.852 11.2534 233.688 11.2534C233.524 11.2534 233.38 11.29 233.257 11.3633C233.134 11.4336 233.038 11.5347 232.967 11.6665C232.9 11.7954 232.866 11.9536 232.866 12.1411C232.866 12.3228 232.901 12.481 232.972 12.6157C233.042 12.7476 233.139 12.8486 233.262 12.9189C233.385 12.9863 233.53 13.02 233.697 13.02C233.864 13.02 234.007 12.9863 234.127 12.9189C234.248 12.8486 234.341 12.7476 234.409 12.6157C234.476 12.481 234.51 12.3228 234.51 12.1411ZM235.753 9.30225C235.753 9.6333 235.666 9.9248 235.49 10.1768C235.317 10.4258 235.075 10.6206 234.765 10.7612C234.454 10.8989 234.098 10.9678 233.697 10.9678C233.295 10.9678 232.938 10.8989 232.625 10.7612C232.314 10.6206 232.069 10.4258 231.891 10.1768C231.715 9.9248 231.627 9.6333 231.627 9.30225C231.627 8.91553 231.715 8.58887 231.891 8.32227C232.069 8.05566 232.314 7.85352 232.625 7.71582C232.935 7.57812 233.29 7.50928 233.688 7.50928C234.092 7.50928 234.45 7.57812 234.76 7.71582C235.071 7.85352 235.314 8.05566 235.49 8.32227C235.666 8.58887 235.753 8.91553 235.753 9.30225ZM234.382 9.37256C234.382 9.21143 234.354 9.07227 234.299 8.95508C234.246 8.83496 234.168 8.74268 234.066 8.67822C233.963 8.61084 233.837 8.57715 233.688 8.57715C233.544 8.57715 233.421 8.60938 233.319 8.67383C233.216 8.73535 233.137 8.82617 233.082 8.94629C233.029 9.06348 233.002 9.20557 233.002 9.37256C233.002 9.53662 233.029 9.68018 233.082 9.80322C233.137 9.92334 233.216 10.0185 233.319 10.0889C233.424 10.1562 233.55 10.1899 233.697 10.1899C233.846 10.1899 233.971 10.1562 234.07 10.0889C234.173 10.0185 234.25 9.92334 234.303 9.80322C234.356 9.68018 234.382 9.53662 234.382 9.37256Z" fill="black"/>
<path d="M127 20.75H207" stroke="#5F328C" stroke-width="0.5"/>
<path d="M127.467 10.8C127.344 10.6777 127.283 10.5222 127.283 10.3333C127.283 10.1444 127.344 9.98886 127.467 9.86664L130.533 6.79997C130.6 6.7333 130.672 6.68619 130.75 6.65864C130.828 6.63064 130.911 6.61664 131 6.61664C131.089 6.61664 131.172 6.63064 131.25 6.65864C131.328 6.68619 131.4 6.7333 131.467 6.79997L134.533 9.86664C134.656 9.98886 134.719 10.1415 134.725 10.3246C134.73 10.5082 134.667 10.6666 134.533 10.8C134.411 10.9222 134.256 10.9833 134.067 10.9833C133.878 10.9833 133.722 10.9222 133.6 10.8L131 8.21664L128.4 10.8C128.278 10.9222 128.125 10.9862 127.941 10.992C127.758 10.9973 127.6 10.9333 127.467 10.8ZM127.467 14.8C127.344 14.6777 127.283 14.5222 127.283 14.3333C127.283 14.1444 127.344 13.9889 127.467 13.8666L130.533 10.8C130.6 10.7333 130.672 10.686 130.75 10.658C130.828 10.6304 130.911 10.6166 131 10.6166C131.089 10.6166 131.172 10.6304 131.25 10.658C131.328 10.686 131.4 10.7333 131.467 10.8L134.533 13.8666C134.656 13.9889 134.719 14.1415 134.725 14.3246C134.73 14.5082 134.667 14.6666 134.533 14.8C134.411 14.9222 134.256 14.9833 134.067 14.9833C133.878 14.9833 133.722 14.9222 133.6 14.8L131 12.2166L128.4 14.8C128.278 14.9222 128.125 14.9862 127.941 14.992C127.758 14.9973 127.6 14.9333 127.467 14.8Z" fill="#5CBAB3"/>
<path d="M181.467 10.8C181.344 10.6777 181.283 10.5222 181.283 10.3333C181.283 10.1444 181.344 9.98886 181.467 9.86664L184.533 6.79997C184.6 6.7333 184.672 6.68619 184.75 6.65864C184.828 6.63064 184.911 6.61664 185 6.61664C185.089 6.61664 185.172 6.63064 185.25 6.65864C185.328 6.68619 185.4 6.7333 185.467 6.79997L188.533 9.86664C188.656 9.98886 188.719 10.1415 188.725 10.3246C188.73 10.5082 188.667 10.6666 188.533 10.8C188.411 10.9222 188.256 10.9833 188.067 10.9833C187.878 10.9833 187.722 10.9222 187.6 10.8L185 8.21664L182.4 10.8C182.278 10.9222 182.125 10.9862 181.941 10.992C181.758 10.9973 181.6 10.9333 181.467 10.8ZM181.467 14.8C181.344 14.6777 181.283 14.5222 181.283 14.3333C181.283 14.1444 181.344 13.9889 181.467 13.8666L184.533 10.8C184.6 10.7333 184.672 10.686 184.75 10.658C184.828 10.6304 184.911 10.6166 185 10.6166C185.089 10.6166 185.172 10.6304 185.25 10.658C185.328 10.686 185.4 10.7333 185.467 10.8L188.533 13.8666C188.656 13.9889 188.719 14.1415 188.725 14.3246C188.73 14.5082 188.667 14.6666 188.533 14.8C188.411 14.9222 188.256 14.9833 188.067 14.9833C187.878 14.9833 187.722 14.9222 187.6 14.8L185 12.2166L182.4 14.8C182.278 14.9222 182.125 14.9862 181.941 14.992C181.758 14.9973 181.6 14.9333 181.467 14.8Z" fill="#5CBAB3"/>
<path d="M244 11.3833C243.911 11.3833 243.828 11.3693 243.75 11.3413C243.672 11.3138 243.6 11.2667 243.533 11.2L240.467 8.13333C240.344 8.01111 240.281 7.85822 240.275 7.67466C240.27 7.49155 240.333 7.33333 240.467 7.2C240.589 7.07778 240.744 7.01666 240.933 7.01666C241.122 7.01666 241.278 7.07778 241.4 7.2L244 9.78333L246.6 7.2C246.722 7.07778 246.875 7.01378 247.058 7.008C247.242 7.00266 247.4 7.06666 247.533 7.2C247.656 7.32222 247.717 7.47778 247.717 7.66666C247.717 7.85555 247.656 8.01111 247.533 8.13333L244.467 11.2C244.4 11.2667 244.328 11.3138 244.25 11.3413C244.172 11.3693 244.089 11.3833 244 11.3833ZM244 15.3833C243.911 15.3833 243.828 15.3693 243.75 15.3413C243.672 15.3138 243.6 15.2667 243.533 15.2L240.467 12.1333C240.344 12.0111 240.281 11.8582 240.275 11.6747C240.27 11.4916 240.333 11.3333 240.467 11.2C240.589 11.0778 240.744 11.0167 240.933 11.0167C241.122 11.0167 241.278 11.0778 241.4 11.2L244 13.7833L246.6 11.2C246.722 11.0778 246.875 11.0138 247.058 11.008C247.242 11.0027 247.4 11.0667 247.533 11.2C247.656 11.3222 247.717 11.4778 247.717 11.6667C247.717 11.8556 247.656 12.0111 247.533 12.1333L244.467 15.2C244.4 15.2667 244.328 15.3138 244.25 15.3413C244.172 15.3693 244.089 15.3833 244 15.3833Z" fill="#5F328C"/>
</g>
</g>
<defs>
<clipPath id="clip0_4_14">
<rect width="333.5" height="22" fill="white"/>
</clipPath>
<clipPath id="clip1_4_14">
<rect width="176" height="22" fill="white" transform="translate(79 1)"/>
</clipPath>
</defs>
</svg>
