<svg width="55" height="28" viewBox="0 0 55 28" fill="none" xmlns="http://www.w3.org/2000/svg">
<path d="M3 12.5357H51" stroke="#9DF6C4" stroke-width="0.5"/>
<path d="M8.52441 7.3125C8.52441 7.2041 8.5083 7.10742 8.47607 7.02246C8.44385 6.93457 8.38525 6.854 8.30029 6.78076C8.21533 6.70752 8.09521 6.63428 7.93994 6.56104C7.78467 6.48486 7.58105 6.40723 7.3291 6.32812C7.04199 6.23438 6.76807 6.12891 6.50732 6.01172C6.24951 5.8916 6.01953 5.75244 5.81738 5.59424C5.61523 5.43604 5.45557 5.25146 5.33838 5.04053C5.22412 4.82959 5.16699 4.5835 5.16699 4.30225C5.16699 4.02979 5.22705 3.78369 5.34717 3.56396C5.46729 3.34424 5.63574 3.15674 5.85254 3.00146C6.06934 2.84326 6.32422 2.72314 6.61719 2.64111C6.91016 2.55615 7.23242 2.51367 7.58398 2.51367C8.05273 2.51367 8.46436 2.59717 8.81885 2.76416C9.17627 2.92822 9.45459 3.15967 9.65381 3.4585C9.85303 3.75439 9.95264 4.09863 9.95264 4.49121H8.52881C8.52881 4.31836 8.49219 4.16602 8.41895 4.03418C8.34863 3.89941 8.24023 3.79395 8.09375 3.71777C7.9502 3.6416 7.77002 3.60352 7.55322 3.60352C7.34229 3.60352 7.16504 3.63574 7.02148 3.7002C6.88086 3.76172 6.77393 3.84668 6.70068 3.95508C6.63037 4.06348 6.59521 4.18213 6.59521 4.31104C6.59521 4.41357 6.62158 4.50732 6.67432 4.59229C6.72998 4.67432 6.80908 4.75195 6.91162 4.8252C7.01709 4.89551 7.146 4.96289 7.29834 5.02734C7.45068 5.0918 7.625 5.15332 7.82129 5.21191C8.16406 5.32031 8.46729 5.44043 8.73096 5.57227C8.99756 5.7041 9.22168 5.85352 9.40332 6.02051C9.58496 6.1875 9.72119 6.37646 9.81201 6.5874C9.90576 6.79834 9.95264 7.03711 9.95264 7.30371C9.95264 7.58789 9.89697 7.83984 9.78564 8.05957C9.67725 8.2793 9.51904 8.4668 9.31104 8.62207C9.10596 8.77441 8.85986 8.89014 8.57275 8.96924C8.28564 9.04834 7.96484 9.08789 7.61035 9.08789C7.28809 9.08789 6.97021 9.04688 6.65674 8.96484C6.34326 8.87988 6.05908 8.75098 5.8042 8.57812C5.55225 8.40527 5.3501 8.18555 5.19775 7.91895C5.04834 7.64941 4.97363 7.33008 4.97363 6.96094H6.40625C6.40625 7.1543 6.43408 7.31836 6.48975 7.45312C6.54541 7.58496 6.62451 7.69189 6.72705 7.77393C6.83252 7.85596 6.95996 7.91455 7.10938 7.94971C7.25879 7.98486 7.42578 8.00244 7.61035 8.00244C7.82422 8.00244 7.99707 7.97314 8.12891 7.91455C8.26367 7.85303 8.36328 7.76953 8.42773 7.66406C8.49219 7.55859 8.52441 7.44141 8.52441 7.3125ZM15.147 7.89258V9H11.7412V7.89258H15.147ZM12.229 2.60156V9H10.7964V2.60156H12.229ZM14.7075 5.17676V6.24902H11.7412V5.17676H14.7075ZM15.1514 2.60156V3.71338H11.7412V2.60156H15.1514ZM17.063 2.60156L18.188 4.78125L19.313 2.60156H20.9478L19.1284 5.77441L20.9961 9H19.3481L18.188 6.78076L17.0322 9H15.3799L17.252 5.77441L15.4282 2.60156H17.063Z" fill="#5CBAB3"/>
<path d="M26.8936 2.5752L25.7993 9H25.2852L26.2827 3.25635L24.4854 3.88916L24.5732 3.37939L26.7969 2.5752H26.8936ZM33.1338 2.60156L33.0854 2.92676L29.4995 9H28.9414L32.501 3.0542H28.9854L29.0513 2.60156H33.1338ZM36.7593 2.59717H37.269L38.5874 8.22656L41.8569 2.60596H42.4106L38.6841 9H38.2798L36.7593 2.59717ZM36.5879 2.60156H37.0581L36.4912 6.21826L36.0078 9H35.4805L36.5879 2.60156ZM42.0986 2.60156H42.5688L41.4614 9H40.9341L41.4219 6.18311L42.0986 2.60156ZM45.8735 8.14746L46.2822 5.69092C46.3145 5.46533 46.2939 5.27197 46.2207 5.11084C46.1504 4.94678 46.0361 4.82227 45.8779 4.7373C45.7227 4.64941 45.5308 4.604 45.3022 4.60107C45.1001 4.59814 44.9009 4.6333 44.7046 4.70654C44.5083 4.77979 44.3369 4.88672 44.1904 5.02734C44.0469 5.16797 43.9517 5.34375 43.9048 5.55469L43.3906 5.55029C43.4229 5.32471 43.502 5.12549 43.6279 4.95264C43.7539 4.77686 43.9092 4.63037 44.0938 4.51318C44.2812 4.39307 44.4834 4.30371 44.7002 4.24512C44.917 4.18359 45.1309 4.1543 45.3418 4.15723C45.6553 4.15723 45.9277 4.22021 46.1592 4.34619C46.3906 4.46924 46.5635 4.64648 46.6777 4.87793C46.7949 5.10645 46.833 5.38184 46.792 5.7041L46.4053 8.00244C46.3789 8.15771 46.3613 8.31592 46.3525 8.47705C46.3438 8.63525 46.3555 8.79053 46.3877 8.94287L46.3833 9H45.8472C45.8267 8.85938 45.8193 8.71729 45.8252 8.57373C45.834 8.43018 45.8501 8.28809 45.8735 8.14746ZM46.3174 6.23145L46.2603 6.63574H45.2891C45.1074 6.63574 44.9155 6.65186 44.7134 6.68408C44.5112 6.71631 44.3179 6.77197 44.1333 6.85107C43.9487 6.93018 43.792 7.04004 43.6631 7.18066C43.5342 7.31836 43.4521 7.49414 43.417 7.70801C43.3877 7.89258 43.4082 8.05371 43.4785 8.19141C43.5518 8.32617 43.6587 8.43164 43.7993 8.50781C43.9399 8.58105 44.0981 8.61914 44.2739 8.62207C44.5317 8.625 44.7764 8.57812 45.0078 8.48145C45.2393 8.38184 45.4458 8.24414 45.6274 8.06836C45.8091 7.89258 45.9512 7.6875 46.0537 7.45312L46.2339 7.76074C46.1548 7.95996 46.0435 8.14307 45.8999 8.31006C45.7593 8.47412 45.5981 8.61475 45.4165 8.73193C45.2349 8.84619 45.04 8.93555 44.832 9C44.624 9.06152 44.4131 9.09229 44.1992 9.09229C43.9385 9.08643 43.7041 9.0293 43.4961 8.9209C43.291 8.8125 43.1313 8.65869 43.0171 8.45947C42.9028 8.26025 42.8604 8.02588 42.8896 7.75635C42.9219 7.46924 43.0127 7.229 43.1621 7.03564C43.3145 6.83936 43.5034 6.68262 43.729 6.56543C43.9546 6.44824 44.1978 6.36328 44.4585 6.31055C44.7192 6.25781 44.9727 6.23145 45.2188 6.23145H46.3174ZM48.7915 5.04932L48.1104 9H47.5962L48.418 4.24512H48.9189L48.7915 5.04932ZM50.5537 4.20996L50.4878 4.68896C50.4351 4.68018 50.3809 4.67285 50.3252 4.66699C50.2695 4.66113 50.2139 4.6582 50.1582 4.6582C49.9209 4.65527 49.71 4.69922 49.5254 4.79004C49.3438 4.88086 49.1841 5.00391 49.0464 5.15918C48.9116 5.31445 48.7988 5.49023 48.708 5.68652C48.6172 5.87988 48.5469 6.0791 48.4971 6.28418L48.2905 6.35889C48.3345 6.104 48.4004 5.84619 48.4883 5.58545C48.5791 5.32471 48.6992 5.08594 48.8486 4.86914C49.001 4.64941 49.187 4.47363 49.4067 4.3418C49.6294 4.20996 49.8931 4.14697 50.1978 4.15283C50.2593 4.15283 50.3193 4.15869 50.3779 4.17041C50.4365 4.1792 50.4951 4.19238 50.5537 4.20996Z" fill="#5F328C"/>
<path d="M17.4243 23.3607V24.4286H13.0034V23.5233L15.0688 21.3348C15.2622 21.1122 15.416 20.9159 15.5303 20.746C15.6475 20.576 15.7324 20.4222 15.7852 20.2845C15.8379 20.1439 15.8643 20.015 15.8643 19.8978C15.8643 19.7074 15.8335 19.5463 15.772 19.4144C15.7134 19.2826 15.627 19.1815 15.5127 19.1112C15.3984 19.0409 15.2593 19.0057 15.0952 19.0057C14.9194 19.0057 14.7686 19.0511 14.6426 19.142C14.5166 19.2328 14.4199 19.3588 14.3525 19.5199C14.2852 19.6781 14.2515 19.8583 14.2515 20.0604H12.8716C12.8716 19.6708 12.9653 19.3163 13.1528 18.9969C13.3403 18.6747 13.6025 18.4183 13.9395 18.2279C14.2764 18.0345 14.6704 17.9379 15.1216 17.9379C15.5845 17.9379 15.9727 18.0111 16.2861 18.1576C16.5996 18.3041 16.8369 18.5135 16.998 18.786C17.1592 19.0585 17.2397 19.3866 17.2397 19.7704C17.2397 19.9872 17.2046 20.1967 17.1343 20.3988C17.0669 20.601 16.9688 20.8016 16.8398 21.0009C16.7109 21.2001 16.5557 21.4037 16.374 21.6117C16.1924 21.8168 15.9873 22.0336 15.7588 22.2621L14.792 23.3607H17.4243ZM22.7153 21.9852V23.0487H18.1099L18.0352 22.2137L20.6543 18.0302H21.7397L20.562 19.9813L19.3711 21.9852H22.7153ZM22.0298 18.0302V24.4286H20.6587V18.0302H22.0298ZM23.5327 19.1595C23.5327 18.9369 23.5869 18.7333 23.6953 18.5487C23.8066 18.3641 23.9546 18.2177 24.1392 18.1093C24.3237 17.9979 24.5259 17.9423 24.7456 17.9423C24.9653 17.9423 25.1646 17.9979 25.3433 18.1093C25.5249 18.2177 25.6699 18.3641 25.7783 18.5487C25.8867 18.7333 25.9409 18.9369 25.9409 19.1595C25.9409 19.3822 25.8867 19.5858 25.7783 19.7704C25.6699 19.952 25.5249 20.097 25.3433 20.2054C25.1646 20.3109 24.9653 20.3636 24.7456 20.3636C24.5259 20.3636 24.3237 20.3109 24.1392 20.2054C23.9546 20.097 23.8066 19.952 23.6953 19.7704C23.5869 19.5858 23.5327 19.3822 23.5327 19.1595ZM24.1875 19.1595C24.1875 19.3177 24.2417 19.4496 24.3501 19.5551C24.4614 19.6576 24.5933 19.7089 24.7456 19.7089C24.895 19.7089 25.021 19.6576 25.1235 19.5551C25.229 19.4525 25.2817 19.3207 25.2817 19.1595C25.2817 18.9984 25.229 18.8651 25.1235 18.7596C25.021 18.6512 24.895 18.597 24.7456 18.597C24.5933 18.597 24.4614 18.6512 24.3501 18.7596C24.2417 18.8651 24.1875 18.9984 24.1875 19.1595ZM30.7222 22.2841H32.146C32.1226 22.7235 32.0024 23.1117 31.7856 23.4486C31.5718 23.7826 31.2744 24.0448 30.8936 24.2352C30.5127 24.4227 30.0601 24.5165 29.5356 24.5165C29.1167 24.5165 28.7417 24.4447 28.4106 24.3011C28.0796 24.1576 27.7983 23.9525 27.5669 23.6859C27.3384 23.4164 27.1626 23.0927 27.0396 22.7147C26.9194 22.3339 26.8594 21.9047 26.8594 21.4271V21.036C26.8594 20.5585 26.9224 20.1293 27.0483 19.7484C27.1743 19.3676 27.3545 19.0424 27.5889 18.7728C27.8232 18.5033 28.1045 18.2968 28.4326 18.1532C28.7607 18.0096 29.127 17.9379 29.5312 17.9379C30.0762 17.9379 30.5361 18.036 30.9111 18.2323C31.2861 18.4286 31.5762 18.6981 31.7812 19.0409C31.9893 19.3837 32.1138 19.7748 32.1548 20.2142H30.7266C30.7148 19.9652 30.668 19.7557 30.5859 19.5858C30.5039 19.413 30.3779 19.2826 30.208 19.1947C30.0381 19.1068 29.8125 19.0629 29.5312 19.0629C29.3262 19.0629 29.146 19.101 28.9907 19.1771C28.8384 19.2533 28.7109 19.3719 28.6084 19.5331C28.5088 19.6942 28.4341 19.8993 28.3843 20.1483C28.3345 20.3944 28.3096 20.6874 28.3096 21.0272V21.4271C28.3096 21.764 28.3315 22.0555 28.3755 22.3016C28.4194 22.5477 28.4897 22.7513 28.5864 22.9125C28.686 23.0736 28.8135 23.1937 28.9688 23.2728C29.124 23.3519 29.313 23.3915 29.5356 23.3915C29.7905 23.3915 30.0029 23.3519 30.1729 23.2728C30.3428 23.1908 30.4731 23.0677 30.564 22.9037C30.6548 22.7396 30.7075 22.5331 30.7222 22.2841Z" fill="#5CBAB3"/>
<path d="M45.1406 17.2187C44.7395 17.2185 44.3403 17.2723 43.9535 17.3787C43.8009 17.1296 43.6154 16.9022 43.4022 16.7025L43.9594 15.9074C43.9947 15.857 44.0197 15.8001 44.0331 15.74C44.0464 15.6799 44.0478 15.6177 44.0371 15.5571C44.0264 15.4964 44.0038 15.4385 43.9708 15.3866C43.9377 15.3346 43.8947 15.2897 43.8443 15.2544C43.7938 15.2191 43.7369 15.194 43.6768 15.1807C43.6167 15.1674 43.5545 15.166 43.4939 15.1767C43.4333 15.1874 43.3753 15.2099 43.3234 15.243C43.2714 15.2761 43.2265 15.3191 43.1912 15.3695L42.634 16.1641C42.1758 15.9327 41.6696 15.8123 41.1563 15.8125H41.0543L40.885 14.858C40.8761 14.7958 40.8548 14.736 40.8223 14.6822C40.7899 14.6284 40.747 14.5817 40.6961 14.5448C40.6452 14.508 40.5875 14.4817 40.5263 14.4676C40.4651 14.4534 40.4016 14.4518 40.3397 14.4627C40.2779 14.4735 40.2188 14.4967 40.1661 14.5309C40.1134 14.5651 40.068 14.6095 40.0328 14.6615C39.9976 14.7135 39.9732 14.7721 39.961 14.8337C39.9489 14.8954 39.9493 14.9588 39.9621 15.0203L40.1309 15.9777C39.611 16.1497 39.1423 16.4488 38.7674 16.8479L37.9693 16.2895C37.9189 16.2533 37.8619 16.2274 37.8014 16.2135C37.741 16.1995 37.6783 16.1977 37.6172 16.2081C37.556 16.2186 37.4975 16.241 37.4451 16.2742C37.3927 16.3074 37.3474 16.3507 37.3118 16.4015C37.2763 16.4524 37.2512 16.5098 37.238 16.5704C37.2247 16.631 37.2237 16.6937 37.2349 16.7547C37.2461 16.8157 37.2692 16.8739 37.3031 16.9259C37.3369 16.9779 37.3808 17.0227 37.432 17.0576L38.2266 17.6154C37.9944 18.0736 37.8739 18.5801 37.875 19.0937V19.1945L36.9205 19.3633C36.805 19.3835 36.7012 19.4463 36.6298 19.5393C36.5583 19.6323 36.5243 19.7487 36.5344 19.8656C36.5446 19.9824 36.5982 20.0912 36.6846 20.1705C36.7711 20.2498 36.8841 20.2937 37.0014 20.2937C37.0287 20.2937 37.0559 20.2914 37.0828 20.2867L38.0391 20.118C38.1231 20.3738 38.2384 20.6182 38.3824 20.8457C37.9341 21.2622 37.6215 21.804 37.4854 22.4006C37.3493 22.9972 37.3961 23.621 37.6195 24.1907C37.843 24.7604 38.2328 25.2496 38.7382 25.5946C39.2436 25.9396 39.8412 26.1244 40.4531 26.125H45.1406C46.3217 26.125 47.4543 25.6558 48.2895 24.8207C49.1246 23.9856 49.5938 22.8529 49.5938 21.6719C49.5938 20.4908 49.1246 19.3582 48.2895 18.523C47.4543 17.6879 46.3217 17.2187 45.1406 17.2187ZM40.9758 20.0758C40.3596 19.9694 39.7256 20.0547 39.1594 20.3201C38.8461 19.8026 38.745 19.184 38.8773 18.5937C39.0096 18.0034 39.365 17.4871 39.8692 17.1529C40.3734 16.8186 40.9873 16.6922 41.5825 16.8001C42.1778 16.9081 42.7082 17.242 43.0629 17.732C42.1067 18.2352 41.3652 19.0679 40.9758 20.0758Z" fill="#5F328C"/>
</svg>
