<svg width="49" height="50" viewBox="0 0 49 50" fill="none" xmlns="http://www.w3.org/2000/svg">
<g filter="url(#filter0_d_59_502)">
<rect x="4" width="42" height="42" rx="10" fill="#5F328C"/>
<path d="M25.5 8C18.075 8 12 13.37 12 20C12.0339 21.594 12.3842 23.1601 13.026 24.5862C13.6678 26.0124 14.5851 27.2634 15.7125 28.25C15.7125 29.15 15.1455 31.505 12 35C15.1995 34.835 18.264 33.5 20.7345 31.25C22.2735 31.745 23.8935 32 25.5 32C32.925 32 39 26.63 39 20C39 13.37 32.925 8 25.5 8ZM25.5 29C19.533 29 14.7 24.965 14.7 20C14.7 15.035 19.533 11 25.5 11C31.467 11 36.3 15.035 36.3 20C36.3 24.965 31.467 29 25.5 29ZM32.25 21.5V18.5H29.55V21.5H32.25ZM26.85 21.5V18.5H24.15V21.5H26.85ZM21.45 21.5V18.5H18.75V21.5H21.45Z" fill="#9DF6C4"/>
</g>
<defs>
<filter id="filter0_d_59_502" x="-4" y="0" width="54" height="54" filterUnits="userSpaceOnUse" color-interpolation-filters="sRGB">
<feFlood flood-opacity="0" result="BackgroundImageFix"/>
<feColorMatrix in="SourceAlpha" type="matrix" values="0 0 0 0 0 0 0 0 0 0 0 0 0 0 0 0 0 0 127 0" result="hardAlpha"/>
<feOffset dy="4"/>
<feGaussianBlur stdDeviation="2"/>
<feComposite in2="hardAlpha" operator="out"/>
<feColorMatrix type="matrix" values="0 0 0 0 0 0 0 0 0 0 0 0 0 0 0 0 0 0 0.25 0"/>
<feBlend mode="normal" in2="BackgroundImageFix" result="effect1_dropShadow_59_502"/>
<feBlend mode="normal" in="SourceGraphic" in2="effect1_dropShadow_59_502" result="shape"/>
</filter>
</defs>
</svg>
